<svg width="280" height="200" viewBox="0 0 280 200" fill="none" xmlns="http://www.w3.org/2000/svg">
<g clip-path="url(#clip0_2097_15090)">
<path d="M271.722 58.6082H118.502C116.346 58.6101 114.278 59.4657 112.753 60.9872C111.228 62.5087 110.37 64.5717 110.368 66.7234V91.4963C110.37 93.648 111.228 95.711 112.753 97.2325C114.278 98.754 116.346 99.6096 118.502 99.6116H271.722C273.879 99.6096 275.947 98.754 277.472 97.2325C278.997 95.711 279.854 93.648 279.856 91.4963V66.7234C279.854 64.5717 278.997 62.5087 277.472 60.9872C275.947 59.4657 273.879 58.6101 271.722 58.6082Z" fill="#F2F2F2"/>
<path d="M61.4451 200H0.48766C0.358324 200 0.234278 199.949 0.142824 199.858C0.0513705 199.766 0 199.643 0 199.514C0 199.385 0.0513705 199.261 0.142824 199.17C0.234278 199.078 0.358324 199.027 0.48766 199.027H61.4451C61.5745 199.027 61.6985 199.078 61.79 199.17C61.8814 199.261 61.9328 199.385 61.9328 199.514C61.9328 199.643 61.8814 199.766 61.79 199.858C61.6985 199.949 61.5745 200 61.4451 200Z" fill="#3F3D56"/>
<path d="M52.4949 47.6681C51.9296 48.0241 51.4494 48.4994 51.0881 49.0606C50.7269 49.6218 50.4933 50.2551 50.404 50.9161C50.3146 51.5771 50.3716 52.2495 50.5709 52.8861C50.7702 53.5227 51.107 54.108 51.5576 54.6007L47.126 64.0419L52.22 68.128L58.2905 54.7075C59.07 53.8975 59.5246 52.8304 59.5682 51.7083C59.6117 50.5863 59.2412 49.4873 58.5268 48.6196C57.8124 47.7519 56.8038 47.1757 55.6921 47.0004C54.5803 46.825 53.4428 47.0626 52.4949 47.6681Z" fill="#FFB8B8"/>
<path d="M27.0284 51.4995C28.4309 50.659 30.1039 50.3894 31.7003 50.7464C33.2968 51.1034 34.6942 52.0598 35.6029 53.4172L44.6708 66.963L47.8189 60.0391C48.0155 59.6068 48.3637 59.261 48.798 59.067C49.2323 58.8729 49.7227 58.8439 50.1769 58.9855L54.9283 60.4662C55.1766 60.5436 55.4068 60.6697 55.6055 60.8371C55.8041 61.0045 55.9672 61.2099 56.0852 61.4411C56.2032 61.6724 56.2736 61.9248 56.2923 62.1836C56.311 62.4423 56.2777 62.7023 56.1943 62.948L52.9418 72.5296C52.5304 73.7417 51.8429 74.8421 50.9335 75.7445C50.0241 76.6469 48.9173 77.3267 47.7002 77.7306C46.4831 78.1345 45.1888 78.2514 43.9187 78.0722C42.6487 77.8931 41.4376 77.4226 40.3804 76.6979C39.8864 76.3593 39.4307 75.9682 39.0211 75.5316L25.658 61.2867C25.0091 60.5949 24.5235 59.7671 24.2367 58.8639C23.95 57.9607 23.8693 57.005 24.0007 56.0667C24.1321 55.1283 24.4721 54.2312 24.996 53.441C25.5199 52.6507 26.2143 51.9874 27.0284 51.4995Z" fill="#CCCCCC"/>
<path d="M56.3628 37.5035C56.6062 37.5095 56.8372 37.6117 57.005 37.7877C57.1728 37.9637 57.2637 38.1989 57.2577 38.4418L57.1794 41.5859L57.3374 41.6003L57.2807 43.7358L57.1264 43.7166L56.8459 54.9807C56.8363 55.3662 56.6864 55.7351 56.4243 56.0185C56.1621 56.3019 55.8055 56.4804 55.4211 56.5208L48.2419 57.2748C48.0671 57.2932 47.8904 57.2732 47.7241 57.2162C47.5579 57.1592 47.4062 57.0667 47.2796 56.945C47.153 56.8233 47.0547 56.6755 46.9914 56.5119C46.9282 56.3483 46.9015 56.1729 46.9134 55.998L48.0023 39.9587C48.0251 39.6218 48.1622 39.3028 48.3909 39.0539C48.6197 38.805 48.9265 38.6412 49.2609 38.5894L56.1915 37.5152C56.2481 37.506 56.3054 37.502 56.3628 37.5035Z" fill="#3F3D56"/>
<path d="M50.8064 39.1727L54.4499 38.608C54.5155 38.5978 54.5759 38.5664 54.6217 38.5185C54.6676 38.4706 54.6963 38.409 54.7035 38.3432C54.7117 38.2686 54.7443 38.1989 54.7962 38.1446C54.8482 38.0904 54.9166 38.0548 54.9908 38.0433L55.7583 37.9243C55.863 37.9081 55.9701 37.915 56.0718 37.9445C56.1736 37.9741 56.2676 38.0255 56.3472 38.0953C56.4269 38.165 56.4902 38.2514 56.5328 38.3482C56.5753 38.445 56.5961 38.55 56.5935 38.6557L56.1991 54.9867C56.1942 55.1894 56.1146 55.3831 55.9757 55.531C55.8367 55.6789 55.648 55.7706 55.4456 55.7885L48.2717 56.4249C48.1802 56.433 48.088 56.4213 48.0014 56.3906C47.9148 56.3599 47.8359 56.3109 47.77 56.247C47.7042 56.1831 47.6529 56.1058 47.6197 56.0203C47.5865 55.9349 47.5723 55.8432 47.5778 55.7518L48.5458 39.8607C48.5601 39.6266 48.6542 39.4044 48.8125 39.2309C48.9708 39.0575 49.1838 38.9433 49.4161 38.9073L50.2252 38.7819C50.2549 38.9081 50.3313 39.0185 50.439 39.0909C50.5468 39.1634 50.678 39.1926 50.8064 39.1727Z" fill="white"/>
<path d="M33.9033 194.094L39.4782 194.094L42.1297 172.64L33.9014 172.641L33.9033 194.094Z" fill="#FFB8B8"/>
<path d="M50.2305 199.258L32.709 199.259L32.7084 192.506L43.4602 192.505C44.3492 192.505 45.2295 192.679 46.0509 193.018C46.8722 193.358 47.6186 193.855 48.2472 194.482C48.8759 195.109 49.3746 195.854 49.7149 196.673C50.0552 197.493 50.2304 198.371 50.2305 199.258Z" fill="#2F2E41"/>
<path d="M16.7686 194.094L22.3435 194.094L24.9949 172.64L16.7666 172.641L16.7686 194.094Z" fill="#FFB8B8"/>
<path d="M33.0962 199.258L15.5747 199.259L15.5741 192.506L26.3259 192.505C28.1213 192.504 29.8433 193.216 31.113 194.482C32.3826 195.749 33.096 197.467 33.0962 199.258Z" fill="#2F2E41"/>
<path d="M33.0961 44.2083C39.711 44.2083 45.0735 38.8584 45.0735 32.259C45.0735 25.6595 39.711 20.3096 33.0961 20.3096C26.4811 20.3096 21.1187 25.6595 21.1187 32.259C21.1187 38.8584 26.4811 44.2083 33.0961 44.2083Z" fill="#FFB8B8"/>
<path d="M39.2603 64.2292C39.1624 61.157 38.2955 58.1581 36.7385 55.5057C35.1815 52.8534 32.9839 50.632 30.3461 49.0439C27.2517 47.2248 23.8647 46.5153 21.17 49.2037C19.552 50.8584 18.2562 52.7986 17.3487 54.9257C14.8561 60.7219 14.693 67.2525 16.8933 73.1654L23.3067 90.8425L38.1507 92.4468C38.4295 92.477 38.7116 92.4468 38.9776 92.3583C39.2437 92.2698 39.4875 92.1251 39.6924 91.9341C39.8974 91.7431 40.0586 91.5103 40.1652 91.2515C40.2717 90.9926 40.3211 90.714 40.3099 90.4344L39.2603 64.2292Z" fill="#2F2E41"/>
<path d="M24.2477 88.6658C24.2477 88.6658 13.1577 92.7961 16.0572 110.286C18.659 125.98 16.5914 178.072 16.1394 188.602C16.1179 189.104 16.292 189.595 16.6251 189.972C16.9582 190.348 17.4245 190.582 17.9264 190.623L24.4 191.161C24.9071 191.203 25.4106 191.046 25.8031 190.723C26.1956 190.4 26.4461 189.937 26.5012 189.433L29.8446 158.795C29.8577 158.675 29.9152 158.563 30.006 158.483C30.0967 158.403 30.2141 158.359 30.3353 158.361C30.4565 158.362 30.5728 158.409 30.6616 158.491C30.7503 158.574 30.8051 158.686 30.8153 158.807L33.3066 188.287C33.3486 188.784 33.58 189.246 33.9531 189.577C34.3263 189.909 34.8127 190.085 35.3121 190.069L40.7496 189.897C41.0058 189.889 41.2579 189.831 41.4915 189.725C41.7251 189.62 41.9356 189.47 42.1109 189.283C42.2863 189.096 42.423 188.877 42.5134 188.638C42.6037 188.399 42.6459 188.144 42.6375 187.888L39.4344 90.7086L24.2477 88.6658Z" fill="#2F2E41"/>
<path d="M35.4996 31.4716C39.5054 33.1106 44.6209 31.196 46.5577 27.3328C48.4944 23.4696 46.9617 18.2375 43.2444 16.0229C39.5272 13.8082 34.1832 14.9434 31.6927 18.4767C29.6667 14.8353 24.3593 13.9069 20.7153 15.9388C17.0713 17.9706 15.0864 22.2265 14.851 26.3846C14.6156 30.5427 15.8827 34.639 17.4285 38.5077C19.9288 44.7656 27.978 48.1351 34.2056 45.5308C31.3546 41.2945 31.9174 35.0952 35.4996 31.4716Z" fill="#2F2E41"/>
<path d="M51.642 49.117C51.5354 49.1171 51.4317 49.0827 51.3464 49.0189L51.3411 49.015L50.2275 48.1651C50.1759 48.1256 50.1326 48.0764 50.1001 48.0203C50.0676 47.9642 50.0465 47.9022 50.038 47.8379C50.0294 47.7736 50.0337 47.7083 50.0505 47.6457C50.0673 47.583 50.0963 47.5243 50.1358 47.4729C50.1754 47.4214 50.2247 47.3782 50.2809 47.3458C50.3372 47.3133 50.3993 47.2923 50.4638 47.2838C50.5282 47.2753 50.5937 47.2795 50.6565 47.2963C50.7192 47.313 50.7781 47.342 50.8297 47.3814L51.551 47.9333L53.2555 45.7147C53.295 45.6633 53.3443 45.6201 53.4005 45.5877C53.4568 45.5553 53.5189 45.5342 53.5833 45.5257C53.6477 45.5172 53.7131 45.5215 53.7759 45.5382C53.8387 45.555 53.8975 45.5839 53.949 45.6234C54.053 45.7031 54.1215 45.8209 54.1387 45.9506C54.1558 46.0804 54.1207 46.2116 54.041 46.3155L52.0361 48.9238C51.9897 48.9839 51.9301 49.0325 51.8618 49.0659C51.7936 49.0993 51.7185 49.1166 51.6425 49.1163L51.642 49.117Z" fill="#20B84B"/>
<path d="M271.866 0H118.646C116.489 0.00194907 114.421 0.85758 112.896 2.37906C111.371 3.90055 110.514 5.96356 110.512 8.11526V32.8882C110.514 35.0399 111.371 37.1029 112.896 38.6244C114.421 40.1459 116.489 41.0015 118.646 41.0034H271.866C274.022 41.0015 276.09 40.1459 277.615 38.6244C279.14 37.1029 279.998 35.0399 280 32.8882V8.11526C279.998 5.96356 279.14 3.90054 277.615 2.37906C276.09 0.857573 274.022 0.00194907 271.866 0ZM279.144 32.8882C279.141 34.8131 278.373 36.6584 277.009 38.0195C275.645 39.3806 273.795 40.1465 271.866 40.1492H118.646C116.717 40.1465 114.867 39.3806 113.503 38.0195C112.138 36.6584 111.371 34.8131 111.368 32.8882V8.11526C111.371 6.19036 112.138 4.34507 113.503 2.98395C114.867 1.62284 116.717 0.856959 118.646 0.854235H271.866C273.795 0.856959 275.645 1.62284 277.009 2.98395C278.373 4.34507 279.141 6.19036 279.144 8.11526V32.8882Z" fill="#3F3D56"/>
<path d="M149.827 34.6264C147.027 34.6264 144.289 33.798 141.961 32.246C139.633 30.6939 137.818 28.488 136.747 25.907C135.675 23.3261 135.395 20.4861 135.941 17.7461C136.487 15.0062 137.836 12.4894 139.816 10.514C141.796 8.53864 144.318 7.19338 147.065 6.64837C149.811 6.10336 152.658 6.38307 155.245 7.45213C157.832 8.52119 160.043 10.3316 161.599 12.6544C163.154 14.9772 163.985 17.7081 163.985 20.5017C163.98 24.2464 162.487 27.8366 159.833 30.4846C157.179 33.1326 153.58 34.6221 149.827 34.6264Z" fill="#20B84B"/>
<path d="M250.96 32.0339H177.371C176.463 32.0339 175.592 31.6739 174.949 31.0331C174.307 30.3923 173.946 29.5231 173.946 28.6169C173.946 27.7107 174.307 26.8416 174.949 26.2008C175.592 25.56 176.463 25.2 177.371 25.2H250.96C251.869 25.2 252.74 25.56 253.382 26.2008C254.024 26.8416 254.385 27.7107 254.385 28.6169C254.385 29.5231 254.024 30.3923 253.382 31.0331C252.74 31.6739 251.869 32.0339 250.96 32.0339Z" fill="#CCCCCC"/>
<path d="M201.726 17.5119H177.371C176.463 17.5119 175.592 17.1519 174.949 16.5111C174.307 15.8703 173.946 15.0012 173.946 14.0949C173.946 13.1887 174.307 12.3196 174.949 11.6788C175.592 11.038 176.463 10.678 177.371 10.678H201.726C202.635 10.678 203.506 11.038 204.148 11.6788C204.79 12.3196 205.151 13.1887 205.151 14.0949C205.151 15.0012 204.79 15.8703 204.148 16.5111C203.506 17.1519 202.635 17.5119 201.726 17.5119Z" fill="#CCCCCC"/>
<path d="M149.104 25.47C148.752 25.4706 148.41 25.3573 148.129 25.147L148.112 25.134L144.442 22.3335C144.272 22.2036 144.129 22.0416 144.022 21.8565C143.914 21.6715 143.844 21.4671 143.816 21.2551C143.788 21.0431 143.802 20.8276 143.857 20.621C143.912 20.4144 144.008 20.2207 144.138 20.0509C144.269 19.8812 144.431 19.7388 144.617 19.6319C144.803 19.5249 145.008 19.4555 145.22 19.4277C145.433 19.3999 145.649 19.4141 145.856 19.4696C146.063 19.5252 146.257 19.6208 146.427 19.7512L148.804 21.5696L154.42 14.2594C154.55 14.0899 154.713 13.9476 154.898 13.8408C155.083 13.7339 155.288 13.6645 155.5 13.6366C155.712 13.6086 155.928 13.6226 156.135 13.6778C156.342 13.733 156.536 13.8283 156.705 13.9582L156.706 13.9586L156.671 14.0068L156.707 13.9586C157.05 14.2213 157.274 14.609 157.33 15.0366C157.387 15.4641 157.271 15.8966 157.008 16.239L150.402 24.8337C150.249 25.0317 150.053 25.1919 149.828 25.302C149.603 25.412 149.356 25.4688 149.105 25.4681L149.104 25.47Z" fill="white"/>
<path d="M206.032 66.6528H52.812C50.6553 66.6548 48.5874 67.5104 47.0624 69.0319C45.5373 70.5534 44.6797 72.6164 44.6777 74.7681V99.541C44.6797 101.693 45.5373 103.756 47.0624 105.277C48.5874 106.799 50.6553 107.654 52.812 107.656H206.032C208.188 107.654 210.256 106.799 211.781 105.277C213.306 103.756 214.164 101.693 214.166 99.541V74.7681C214.164 72.6164 213.306 70.5534 211.781 69.0319C210.256 67.5104 208.188 66.6548 206.032 66.6528Z" fill="white"/>
<path d="M206.032 66.6528H52.812C50.6553 66.6548 48.5874 67.5104 47.0624 69.0319C45.5373 70.5534 44.6797 72.6164 44.6777 74.7681V99.541C44.6797 101.693 45.5373 103.756 47.0624 105.277C48.5874 106.799 50.6553 107.654 52.812 107.656H206.032C208.188 107.654 210.256 106.799 211.781 105.277C213.306 103.756 214.164 101.693 214.166 99.541V74.7681C214.164 72.6164 213.306 70.5534 211.781 69.0319C210.256 67.5104 208.188 66.6548 206.032 66.6528ZM213.31 99.541C213.307 101.466 212.539 103.311 211.175 104.672C209.811 106.033 207.961 106.799 206.032 106.802H52.812C50.8826 106.799 49.033 106.033 47.6687 104.672C46.3044 103.311 45.5367 101.466 45.534 99.541V74.7681C45.5367 72.8432 46.3044 70.9979 47.6687 69.6368C49.033 68.2757 50.8826 67.5098 52.812 67.5071H206.032C207.961 67.5098 209.811 68.2757 211.175 69.6368C212.539 70.9979 213.307 72.8432 213.31 74.7681V99.541Z" fill="#3F3D56"/>
<path d="M83.9924 101.279C81.1923 101.279 78.455 100.451 76.1267 98.899C73.7985 97.347 71.9838 95.1411 70.9122 92.5601C69.8406 89.9792 69.5602 87.1391 70.1065 84.3992C70.6528 81.6593 72.0012 79.1425 73.9812 77.1671C75.9612 75.1917 78.4839 73.8465 81.2302 73.3014C83.9766 72.7564 86.8233 73.0361 89.4103 74.1052C91.9973 75.1743 94.2085 76.9847 95.7642 79.3075C97.3198 81.6303 98.1502 84.3611 98.1502 87.1547C98.1459 90.8995 96.6529 94.4897 93.9988 97.1377C91.3446 99.7856 87.746 101.275 83.9924 101.279Z" fill="#20B84B"/>
<path d="M185.126 98.6869H111.537C110.629 98.6869 109.758 98.3269 109.115 97.6861C108.473 97.0453 108.112 96.1762 108.112 95.27C108.112 94.3637 108.473 93.4946 109.115 92.8538C109.758 92.213 110.629 91.853 111.537 91.853H185.126C186.035 91.853 186.906 92.213 187.548 92.8538C188.19 93.4946 188.551 94.3637 188.551 95.27C188.551 96.1762 188.19 97.0453 187.548 97.6861C186.906 98.3269 186.035 98.6869 185.126 98.6869Z" fill="#CCCCCC"/>
<path d="M135.892 84.165H111.537C111.087 84.165 110.642 84.0766 110.227 83.9049C109.811 83.7331 109.433 83.4815 109.115 83.1642C108.797 82.8469 108.545 82.4702 108.373 82.0556C108.201 81.6411 108.112 81.1967 108.112 80.748C108.112 80.2993 108.201 79.855 108.373 79.4404C108.545 79.0258 108.797 78.6492 109.115 78.3319C109.433 78.0146 109.811 77.7629 110.227 77.5912C110.642 77.4194 111.087 77.3311 111.537 77.3311H135.892C136.801 77.3311 137.672 77.6911 138.314 78.3319C138.956 78.9727 139.317 79.8418 139.317 80.748C139.317 81.6542 138.956 82.5234 138.314 83.1642C137.672 83.805 136.801 84.165 135.892 84.165Z" fill="#CCCCCC"/>
<path d="M83.2696 92.1231C82.9183 92.1237 82.5764 92.0103 82.2953 91.8001L82.2779 91.7871L78.6084 88.9865C78.4381 88.8567 78.2951 88.6946 78.1876 88.5096C78.0801 88.3246 78.0102 88.1202 77.982 87.9082C77.9537 87.6962 77.9677 87.4807 78.023 87.2741C78.0783 87.0675 78.1739 86.8737 78.3043 86.704C78.4347 86.5343 78.5974 86.3919 78.7831 86.2849C78.9687 86.178 79.1737 86.1086 79.3862 86.0808C79.5988 86.0529 79.8147 86.0672 80.0218 86.1227C80.2288 86.1782 80.4228 86.2739 80.5927 86.4043L82.9695 88.2227L88.5861 80.9124C88.7163 80.743 88.8788 80.6007 89.0641 80.4939C89.2494 80.387 89.454 80.3176 89.6663 80.2896C89.8785 80.2617 90.0941 80.2757 90.3009 80.3309C90.5077 80.3861 90.7016 80.4813 90.8715 80.6113L90.8719 80.6116L90.8371 80.6599L90.8729 80.6116C91.2156 80.8744 91.4398 81.2621 91.4964 81.6897C91.5529 82.1172 91.4371 82.5496 91.1744 82.8921L84.5681 91.4867C84.4153 91.6848 84.2188 91.845 83.9938 91.955C83.7689 92.0651 83.5216 92.1219 83.271 92.1212L83.2696 92.1231Z" fill="white"/>
<path d="M47.8437 72.2412C47.228 71.9814 46.5627 71.8595 45.8946 71.8839C45.2265 71.9084 44.572 72.0787 43.977 72.3829C43.3821 72.687 42.8612 73.1176 42.4511 73.6443C42.0411 74.171 41.7517 74.7811 41.6035 75.4314L31.3039 77.1917L30.8496 83.6969L45.3595 81.0073C46.4711 81.1833 47.6089 80.9464 48.5571 80.3414C49.5053 79.7365 50.1981 78.8056 50.5043 77.725C50.8106 76.6445 50.7088 75.4894 50.2185 74.4787C49.7281 73.468 48.8831 72.6719 47.8437 72.2412Z" fill="#FFB8B8"/>
<path d="M30.1514 53.5695C31.6438 54.2384 32.8209 55.4548 33.4385 56.9662C34.0561 58.4777 34.0669 60.1684 33.4687 61.6876L27.4984 76.8485L34.9936 75.4741C35.4616 75.3882 35.9449 75.4761 36.3526 75.721C36.7602 75.966 37.064 76.3511 37.2069 76.804L38.701 81.5412C38.7791 81.7887 38.8067 82.0492 38.7824 82.3075C38.758 82.5658 38.6821 82.8167 38.5592 83.0453C38.4362 83.2739 38.2687 83.4757 38.0664 83.6388C37.8642 83.8019 37.6313 83.923 37.3814 83.995L27.6394 86.8012C26.4071 87.1562 25.1091 87.2214 23.8473 86.9917C22.5854 86.7619 21.3941 86.2436 20.3669 85.4772C19.3397 84.7109 18.5045 83.7175 17.9268 82.5749C17.3492 81.4324 17.0449 80.1718 17.0377 78.8921C17.0344 78.2942 17.096 77.6976 17.2214 77.1129L21.3149 58.0347C21.5136 57.1083 21.9176 56.2379 22.4972 55.4873C23.0767 54.7368 23.8172 54.1251 24.6644 53.697C25.5116 53.2689 26.4441 53.0353 27.3935 53.0132C28.3429 52.9911 29.2852 53.1812 30.1514 53.5695Z" fill="#CCCCCC"/>
</g>
<defs>
<clipPath id="clip0_2097_15090">
<rect width="280" height="200" fill="white"/>
</clipPath>
</defs>
</svg>
