<svg width="100" height="100" viewBox="0 0 100 100" fill="none" xmlns="http://www.w3.org/2000/svg">
<path d="M50 100C77.6142 100 100 77.6142 100 50C100 22.3858 77.6142 0 50 0C22.3858 0 0 22.3858 0 50C0 77.6142 22.3858 100 50 100Z" fill="#20B84B"/>
<path d="M49.4522 30L52.4522 82C65.6188 79.6667 83.4522 63.6 49.4522 18C16.2522 62.4 32.9522 79.1667 45.4522 82L49.4522 30Z" fill="#FAFAFA"/>
<path d="M65 63C59.1926 73.4774 53.2469 76.6989 51 77V71.5806C51 68.6903 60.3333 64.6559 65 63Z" fill="#20B84B"/>
<path d="M33 63C38.8074 73.4774 44.7531 76.6989 47 77V71.5806C47 68.6903 37.6667 64.6559 33 63Z" fill="#20B84B"/>
<path d="M60 50C55.8519 57.4839 51.6049 59.7849 50 60V56.129C50 54.0645 56.6667 51.1828 60 50Z" fill="#20B84B"/>
<path d="M56 38C53.5111 42.4903 50.963 43.871 50 44V41.6774C50 40.4387 54 38.7097 56 38Z" fill="#20B84B"/>
<path d="M43 38C45.4889 42.4903 48.037 43.871 49 44V41.6774C49 40.4387 45 38.7097 43 38Z" fill="#20B84B"/>
<path d="M38 50C42.1481 57.4839 46.3951 59.7849 48 60V56.129C48 54.0645 41.3333 51.1828 38 50Z" fill="#20B84B"/>
</svg>
