<svg width="18" height="18" viewBox="0 0 18 18" fill="none" xmlns="http://www.w3.org/2000/svg">
<path d="M17.2925 13.4791C15.6745 12.0798 14.1772 10.1057 14.1772 5.17673C14.1772 2.32226 11.8549 0 9.00031 0C6.14537 0 3.82272 2.32226 3.82272 5.17673C3.82272 10.1101 2.32595 12.0823 0.706532 13.4804C0.257549 13.8714 0 14.4346 0 15.0255C0 15.3508 0.263674 15.6145 0.588908 15.6145H6.17764C6.45027 16.9228 7.61206 17.909 9 17.909C10.3879 17.909 11.5498 16.9229 11.8224 15.6145H17.4111C17.7363 15.6145 18 15.3508 18 15.0255C18 14.4298 17.7418 13.8658 17.2925 13.4791ZM9 16.7312C8.26661 16.7312 7.63994 16.2656 7.39966 15.6145H10.6003C10.3601 16.2656 9.73339 16.7312 9 16.7312ZM1.40977 14.4366C1.4312 14.4134 1.45405 14.3913 1.47816 14.3703C3.94709 12.2388 5.00045 9.48926 5.00045 5.17673C5.00045 2.97171 6.79482 1.17782 9.00024 1.17782C11.2053 1.17782 12.9993 2.97171 12.9993 5.17673C12.9993 9.48534 14.0528 12.2347 16.523 14.3708C16.5471 14.3916 16.57 14.4136 16.5915 14.4366H1.40977Z" fill="#035350"/>
</svg>
