<svg width="280" height="194" viewBox="0 0 280 194" fill="none" xmlns="http://www.w3.org/2000/svg">
<g clip-path="url(#clip0_1947_14833)">
<path d="M226.615 92.7711L233.512 108.332L231.852 127.576C231.331 128.019 230.962 128.614 230.798 129.278C230.634 129.942 230.682 130.641 230.937 131.276C231.191 131.911 231.639 132.45 232.216 132.815C232.793 133.181 233.471 133.356 234.152 133.314C234.834 133.272 235.485 133.017 236.014 132.584C236.542 132.15 236.921 131.561 237.097 130.9C237.273 130.239 237.236 129.539 236.993 128.9C236.749 128.261 236.311 127.715 235.74 127.339L236.011 127.292L238.713 108.06L234.256 88.6621L226.615 92.7711Z" fill="#FFB8B8"/>
<path d="M206.922 194C213.719 194 219.23 193.425 219.23 192.716C219.23 192.007 213.719 191.432 206.922 191.432C200.124 191.432 194.614 192.007 194.614 192.716C194.614 193.425 200.124 194 206.922 194Z" fill="#E6E6E6"/>
<path d="M243.333 194C250.13 194 255.641 193.425 255.641 192.716C255.641 192.007 250.13 191.432 243.333 191.432C236.535 191.432 231.025 192.007 231.025 192.716C231.025 193.425 236.535 194 243.333 194Z" fill="#E6E6E6"/>
<path d="M271.538 194.001C276.212 194.001 280 193.605 280 193.117C280 192.63 276.212 192.234 271.538 192.234C266.865 192.234 263.077 192.63 263.077 193.117C263.077 193.605 266.865 194.001 271.538 194.001Z" fill="#E6E6E6"/>
<path d="M273.959 186.424C273.9 188.625 273.533 190.807 272.867 192.905C272.851 192.954 272.835 193.001 272.82 193.05H268.74C268.744 193.007 268.749 192.958 268.753 192.905C269.025 189.771 270.593 170.704 268.718 167.443C268.883 167.708 274.276 176.469 273.959 186.424Z" fill="#E6E6E6"/>
<path d="M273.654 192.905C273.62 192.953 273.584 193.002 273.548 193.05H270.487C270.51 193.009 270.537 192.961 270.568 192.905C271.074 191.99 272.57 189.257 273.96 186.424C275.453 183.379 276.823 180.218 276.707 179.074C276.743 179.332 277.776 187.197 273.654 192.905Z" fill="#E6E6E6"/>
<path d="M188.139 122.963H2.23767C1.64442 122.962 1.07567 122.725 0.656181 122.305C0.23669 121.885 0.000710578 121.315 7.62939e-06 120.721V2.2416C0.000632621 1.64728 0.236588 1.07749 0.656096 0.657241C1.0756 0.236996 1.6444 0.000626091 2.23767 0H188.139C188.732 0.000626091 189.301 0.236996 189.721 0.657241C190.14 1.07749 190.376 1.64728 190.377 2.2416V120.721C190.376 121.315 190.14 121.885 189.72 122.305C189.301 122.725 188.732 122.962 188.139 122.963ZM2.23767 0.886941C1.87915 0.887332 1.53541 1.03018 1.2819 1.28414C1.02838 1.5381 0.885785 1.88244 0.885395 2.2416V120.721C0.885785 121.08 1.02838 121.424 1.2819 121.678C1.53541 121.932 1.87915 122.075 2.23767 122.076H188.139C188.498 122.075 188.841 121.932 189.095 121.678C189.348 121.424 189.491 121.08 189.491 120.721V2.2416C189.491 1.88244 189.348 1.5381 189.095 1.28414C188.841 1.03018 188.498 0.887332 188.139 0.886941H2.23767Z" fill="#E6E6E6"/>
<path d="M139.987 17.4668H41.49C41.0063 17.4673 40.5426 17.6601 40.2005 18.0027C39.8585 18.3454 39.6661 18.8099 39.6655 19.2945V103.667C39.6661 104.152 39.8585 104.616 40.2005 104.959C40.5426 105.302 41.0063 105.494 41.49 105.495H139.987C140.47 105.494 140.934 105.302 141.276 104.959C141.618 104.616 141.811 104.152 141.811 103.667V19.2945C141.811 18.8099 141.618 18.3454 141.276 18.0027C140.934 17.6601 140.47 17.4673 139.987 17.4668ZM141.079 103.667C141.079 103.958 140.964 104.237 140.759 104.442C140.554 104.648 140.277 104.765 139.987 104.766H41.49C41.1999 104.765 40.9219 104.649 40.7172 104.443C40.5124 104.237 40.3977 103.958 40.398 103.667V19.2945C40.3977 19.0038 40.5124 18.7249 40.7172 18.5189C40.9219 18.3129 41.1999 18.1967 41.49 18.1959H139.987C140.277 18.1973 140.554 18.3136 140.759 18.5195C140.964 18.7253 141.079 19.004 141.079 19.2945V103.667Z" fill="#3F3D56"/>
<path d="M64.2255 90.4937C64.2255 90.6238 64.222 90.7539 64.2152 90.8804C64.1156 92.7843 63.2904 94.5774 61.9099 95.8898C60.5294 97.2022 58.6987 97.9338 56.7955 97.9338C54.8923 97.9338 53.0617 97.2022 51.6811 95.8898C50.3006 94.5774 49.4755 92.7843 49.3759 90.8804C49.3691 90.7539 49.3655 90.6238 49.3655 90.4937C49.3655 88.5197 50.1483 86.6266 51.5417 85.2308C52.935 83.8349 54.8249 83.0508 56.7954 83.0508C58.7659 83.0508 60.6557 83.8349 62.0491 85.2308C63.4424 86.6266 64.2252 88.5197 64.2252 90.4937H64.2255Z" fill="#20B84B"/>
<path d="M132.333 85.5302H73.9532C73.6328 85.5423 73.3296 85.6784 73.1072 85.9097C72.8848 86.1411 72.7606 86.4498 72.7606 86.771C72.7606 87.0922 72.8848 87.4009 73.1072 87.6323C73.3296 87.8637 73.6328 87.9997 73.9532 88.0118H132.333C132.661 88.0237 132.98 87.9046 133.221 87.6807C133.462 87.4568 133.604 87.1465 133.616 86.8178C133.628 86.4891 133.51 86.1689 133.287 85.9275C133.064 85.6861 132.755 85.5432 132.426 85.5302C132.395 85.529 132.364 85.529 132.333 85.5302Z" fill="#20B84B"/>
<path d="M99.0737 92.9746H73.9532C73.6252 92.9746 73.3106 93.1052 73.0786 93.3375C72.8467 93.5699 72.7164 93.8851 72.7164 94.2137C72.7164 94.5423 72.8467 94.8574 73.0786 95.0898C73.3106 95.3222 73.6252 95.4527 73.9532 95.4527H99.0737C99.4017 95.4533 99.7166 95.3233 99.9489 95.0913C100.181 94.8593 100.312 94.5444 100.313 94.2157C100.313 93.8871 100.183 93.5717 99.9518 93.339C99.7202 93.1062 99.4059 92.9752 99.0778 92.9746H99.0737Z" fill="#E6E6E6"/>
<path d="M163.387 76.3257H64.8899C64.3383 76.3251 63.8095 76.1053 63.4195 75.7146C63.0295 75.3239 62.8101 74.7942 62.8095 74.2417V30.9395C62.8101 30.387 63.0295 29.8572 63.4195 29.4666C63.8095 29.0759 64.3383 28.8561 64.8899 28.8555H163.386C163.938 28.8561 164.466 29.0759 164.856 29.4666C165.246 29.8572 165.466 30.387 165.466 30.9395V74.2405C165.466 74.7931 165.247 75.3229 164.857 75.7138C164.467 76.1047 163.939 76.3248 163.387 76.3257Z" fill="#20B84B"/>
<path d="M84.95 44.2043C84.6216 44.1899 84.3009 44.3068 84.0585 44.5293C83.8162 44.7518 83.6719 45.0616 83.6576 45.3907C83.6432 45.7197 83.7599 46.0409 83.982 46.2837C84.2041 46.5265 84.5134 46.671 84.8419 46.6854C84.8779 46.687 84.914 46.687 84.95 46.6854H143.328C143.648 46.6714 143.949 46.5346 144.17 46.3035C144.391 46.0724 144.514 45.7648 144.514 45.4448C144.514 45.1249 144.391 44.8173 144.17 44.5862C143.949 44.3551 143.648 44.2183 143.328 44.2043H84.95Z" fill="white"/>
<path d="M84.95 51.3918C84.6216 51.3774 84.3009 51.4944 84.0585 51.7168C83.8162 51.9393 83.6719 52.2491 83.6576 52.5782C83.6432 52.9072 83.7599 53.2284 83.982 53.4712C84.2041 53.714 84.5134 53.8585 84.8419 53.8729C84.8779 53.8745 84.914 53.8745 84.95 53.8729H143.328C143.648 53.8589 143.949 53.7221 144.17 53.491C144.391 53.2599 144.514 52.9523 144.514 52.6323C144.514 52.3124 144.391 52.0048 144.17 51.7737C143.949 51.5426 143.648 51.4058 143.328 51.3918H84.95Z" fill="white"/>
<path d="M84.95 58.4934C84.6309 58.5073 84.3295 58.6441 84.1087 58.8752C83.8878 59.1064 83.7646 59.414 83.7646 59.7339C83.7646 60.0539 83.8878 60.3614 84.1087 60.5926C84.3295 60.8237 84.6309 60.9605 84.95 60.9744H110.07C110.233 60.9816 110.396 60.9565 110.548 60.9007C110.701 60.845 110.842 60.7596 110.962 60.6494C111.082 60.5392 111.179 60.4065 111.248 60.2587C111.317 60.1109 111.356 59.951 111.363 59.7881C111.37 59.6252 111.345 59.4625 111.289 59.3092C111.234 59.156 111.148 59.0153 111.038 58.895C110.928 58.7748 110.796 58.6774 110.648 58.6085C110.501 58.5396 110.341 58.5005 110.179 58.4934C110.143 58.4918 110.107 58.4918 110.07 58.4934H84.95Z" fill="white"/>
<path d="M7.94279 7.84999C8.79249 7.84999 9.4813 7.15997 9.4813 6.30879C9.4813 5.4576 8.79249 4.76758 7.94279 4.76758C7.0931 4.76758 6.40429 5.4576 6.40429 6.30879C6.40429 7.15997 7.0931 7.84999 7.94279 7.84999Z" fill="#20B84B"/>
<path d="M13.3274 7.84999C14.1771 7.84999 14.8659 7.15997 14.8659 6.30879C14.8659 5.4576 14.1771 4.76758 13.3274 4.76758C12.4777 4.76758 11.7889 5.4576 11.7889 6.30879C11.7889 7.15997 12.4777 7.84999 13.3274 7.84999Z" fill="#20B84B"/>
<path d="M18.712 7.84999C19.5617 7.84999 20.2505 7.15997 20.2505 6.30879C20.2505 5.4576 19.5617 4.76758 18.712 4.76758C17.8623 4.76758 17.1735 5.4576 17.1735 6.30879C17.1735 7.15997 17.8623 7.84999 18.712 7.84999Z" fill="#20B84B"/>
<path d="M224.261 73.4336C228.046 73.4336 231.114 70.3599 231.114 66.5683C231.114 62.7768 228.046 59.7031 224.261 59.7031C220.476 59.7031 217.408 62.7768 217.408 66.5683C217.408 70.3599 220.476 73.4336 224.261 73.4336Z" fill="#FFB8B8"/>
<path d="M210.706 103.18L228.705 106.535C234.773 95.3981 238.12 85.3423 232.472 78.8596L221.798 78.2305C214.978 85.5365 209.21 92.6267 213.129 97.7296L210.706 103.18Z" fill="#20B84B"/>
<path d="M226.734 94.4349C230.853 96.0137 234.676 94.6419 238.185 90.1418L232.984 80.0898L226.357 81.4055L226.734 94.4349Z" fill="#20B84B"/>
<path d="M209.031 186.624L216.146 186.257L220.75 137.983L244.191 185.996L251.516 185.786L237.495 143.643C236.942 129.584 236.363 115.561 230.379 109.469L228.286 105.066L211.543 101.502L209.241 105.905C203.903 118.391 207.037 154.067 209.031 186.624Z" fill="#2F2E41"/>
<path d="M217.612 89.9727L211.752 105.908L201.126 121.056C200.444 121.101 199.794 121.359 199.267 121.794C198.74 122.23 198.364 122.82 198.191 123.482C198.018 124.144 198.057 124.843 198.303 125.482C198.549 126.12 198.99 126.664 199.562 127.037C200.135 127.411 200.81 127.594 201.492 127.561C202.174 127.529 202.829 127.282 203.363 126.856C203.897 126.429 204.284 125.845 204.468 125.187C204.653 124.528 204.625 123.828 204.39 123.185L204.635 123.308L218.239 109.472L226.193 91.2306L217.612 89.9727Z" fill="#FFB8B8"/>
<path d="M216.148 89.9712C219.079 93.2718 223.104 93.8146 228.286 91.4388V80.1173L221.798 78.2305L216.148 89.9712Z" fill="#20B84B"/>
<path d="M245.754 85.6849C244.712 84.379 243.258 83.4814 241.848 82.588C240.438 81.6945 239.005 80.7452 238.047 79.3764C236.518 77.1921 236.445 74.3193 236.673 71.6615C236.901 69.0036 237.368 66.2887 236.721 63.7006C235.866 60.277 233.035 57.505 229.689 56.3996C226.343 55.2942 222.58 55.766 219.433 57.3519L220.298 56.5338C219.609 56.6761 218.98 57.0266 218.495 57.5381C218.011 58.0496 217.695 58.6975 217.59 59.3945C217.484 60.0916 217.595 60.8042 217.906 61.4365C218.217 62.0687 218.714 62.5902 219.331 62.9307C220.75 63.7151 222.685 63.4904 223.825 64.6434C224.948 65.7802 224.713 67.646 224.307 69.1928C223.258 73.1971 221.594 77.0517 221.018 81.15C220.442 85.2482 221.17 89.8402 224.205 92.6488C226.437 94.7133 229.607 95.5098 232.644 95.4489C235.68 95.388 238.643 94.5558 241.565 93.728C243.615 93.1479 245.927 92.3432 246.73 90.3659C247.358 88.8187 246.796 86.9908 245.754 85.6849Z" fill="#2F2E41"/>
<path d="M216.326 192.149L201.047 192.149V191.955C201.048 190.375 201.674 188.86 202.789 187.743C203.905 186.626 205.417 185.998 206.994 185.998H206.995L216.326 185.998L216.326 192.149Z" fill="#2F2E41"/>
<path d="M251.741 191.558L236.463 191.557V191.363C236.463 189.784 237.089 188.268 238.205 187.151C239.32 186.034 240.832 185.406 242.41 185.406H242.41L251.742 185.407L251.741 191.558Z" fill="#2F2E41"/>
</g>
<defs>
<clipPath id="clip0_1947_14833">
<rect width="280" height="194" fill="white"/>
</clipPath>
</defs>
</svg>
