<svg width="280" height="153" viewBox="0 0 280 153" fill="none" xmlns="http://www.w3.org/2000/svg">
<g clip-path="url(#clip0_2188_15451)">
<path d="M38.0954 122.324H248.676V1.96136H38.0954V122.324Z" fill="white"/>
<path d="M250.413 124.285H36.3582V0H250.413V124.285ZM39.8324 120.363H246.939V3.92255H39.8324V120.363Z" fill="#E5E5E5"/>
<path d="M136.378 27.4246V68.277H83.7801L74.0629 81.4406L75.1725 68.277H70.4444V27.4246H136.378Z" fill="#20B84B"/>
<path d="M168.209 29.8484V56.0413H201.933L208.163 64.481L207.452 56.0413H210.483V29.8484H168.209Z" fill="#F0F0F0"/>
<path d="M29.0305 149.137H32.073L33.5206 135.887H29.0302L29.0305 149.137Z" fill="#FFB7B7"/>
<path d="M28.2545 148.015L34.2464 148.015C35.2591 148.015 36.2305 148.469 36.9466 149.278C37.6627 150.086 38.065 151.183 38.0651 152.326V152.466L28.2546 152.467L28.2545 148.015Z" fill="#2F2E41"/>
<path d="M65.5844 149.024L68.5389 148.203L67.1402 134.946L62.7798 136.158L65.5844 149.024Z" fill="#FFB7B7"/>
<path d="M64.5936 148.144L70.4118 146.527C71.3952 146.254 72.4347 146.433 73.3011 147.025C74.1676 147.617 74.7903 148.573 75.0323 149.684L75.062 149.82L65.5358 152.467L64.5936 148.144Z" fill="#2F2E41"/>
<path d="M27.1595 145.977L27.7915 142.326C27.7915 142.326 28.9549 128.229 37.3045 114.16L40.0223 98.8765C40.0223 98.8765 39.2151 87.3079 47.0054 81.0458L49.4071 79.1779L57.8277 79.7228L59.7725 91.7442L63.6911 120.188C63.6911 120.188 64.7024 120.295 65.0816 123.585C65.8524 124.966 66.3083 126.541 66.4089 128.17C66.4089 128.17 68.4143 134.416 68.9515 139.015L68.8883 143.515L64.6537 146.062L55.8277 117.881L49.5149 102.125C49.5149 102.125 46.4765 113.226 41.8227 122.736C41.8227 122.736 35.4485 138.313 34.1751 141.477L32.7846 146.657L27.1595 145.977Z" fill="#2F2E41"/>
<path d="M55.314 54.9881C58.6381 54.9881 61.3327 51.9457 61.3327 48.1927C61.3327 44.4397 58.6381 41.3973 55.314 41.3973C51.99 41.3973 49.2953 44.4397 49.2953 48.1927C49.2953 51.9457 51.99 54.9881 55.314 54.9881Z" fill="#FFB7B7"/>
<path d="M55.314 54.9881C58.6381 54.9881 61.3327 51.9457 61.3327 48.1927C61.3327 44.4397 58.6381 41.3973 55.314 41.3973C51.99 41.3973 49.2953 44.4397 49.2953 48.1927C49.2953 51.9457 51.99 54.9881 55.314 54.9881Z" fill="#FFB8B8"/>
<path d="M47.023 81.1183L49.0099 75.5149C47.6061 70.3813 47.6921 64.8755 49.2555 59.8009L49.6356 59.4475C52.9472 56.3683 55.8538 56.9289 58.551 60.6955C58.9854 61.3078 59.4934 61.8486 60.0603 62.3022C61.2499 63.2445 63.1371 68.3641 60.6453 71.3651L58.6518 84.4944C58.8617 91.7434 54.2027 89.0138 47.023 81.1183Z" fill="#3F3D56"/>
<path d="M75.5119 73.4972C75.2549 73.2778 74.9585 73.1246 74.6435 73.0486C74.3284 72.9725 74.0025 72.9754 73.6885 73.057C73.3746 73.1385 73.0803 73.2968 72.8264 73.5207C72.5725 73.7446 72.3652 74.0286 72.219 74.3527L67.1986 73.9114L66.217 77.2905L73.3145 77.8013C73.813 78.0425 74.3726 78.0688 74.8872 77.8752C75.4017 77.6817 75.8356 77.2817 76.1064 76.7512C76.3773 76.2206 76.4663 75.5963 76.3568 74.9966C76.2472 74.3969 75.9466 73.8634 75.5119 73.4972Z" fill="#FFB7B7"/>
<path d="M70.7052 78.9789L56.3998 75.9631L51.7469 67.1556C51.448 66.2197 51.4905 65.1881 51.8653 64.2876C52.24 63.3872 52.9162 62.6917 53.7451 62.3541C54.574 62.0166 55.4878 62.0647 56.2853 62.4878C57.0828 62.9109 57.6988 63.6743 57.9978 64.6102L60.1801 71.4239L71.4937 73.5382L70.7052 78.9789Z" fill="#CCCCCC"/>
<path d="M44.5856 46.7043C47.7746 46.7043 50.3598 43.7855 50.3598 40.185C50.3598 36.5844 47.7746 33.6656 44.5856 33.6656C41.3966 33.6656 38.8113 36.5844 38.8113 40.185C38.8113 43.7855 41.3966 46.7043 44.5856 46.7043Z" fill="#2F2E41"/>
<path d="M39.605 45.5834C40.3523 46.1933 41.2182 46.5922 42.1301 46.7468C43.042 46.9014 43.9735 46.8072 44.8465 46.4721C45.7196 46.1369 46.5088 45.5705 47.1483 44.8204C47.7877 44.0702 48.2587 43.1581 48.5219 42.1602C48.4223 43.0545 48.1596 43.9156 47.7504 44.6894C47.3411 45.4632 46.7942 46.1328 46.1442 46.6559C45.4942 47.179 44.7551 47.5443 43.9738 47.7286C43.1924 47.913 42.3857 47.9125 41.6045 47.7271C40.8233 47.5416 40.0847 47.1754 39.4352 46.6514C38.7858 46.1274 38.2396 45.4571 37.8311 44.6828C37.4227 43.9084 37.1609 43.0469 37.0622 42.1526C36.9636 41.2582 37.0302 40.3505 37.258 39.4867C37.1286 40.6472 37.2783 41.8256 37.6912 42.8983C38.1042 43.971 38.7652 44.8985 39.605 45.5834Z" fill="#2F2E41"/>
<path d="M62.3927 45.5907C61.3846 43.5531 60.9989 42.702 59.6992 41.463C58.5498 40.3672 57.1361 40.0454 55.9958 41.0837C54.6468 40.4256 53.1458 40.2764 51.7158 40.6582C50.2857 41.04 49.0029 41.9324 48.0578 43.203C47.1128 44.4735 46.5559 46.0543 46.4699 47.7105C46.384 49.3668 46.7735 51.0102 47.5807 52.3966C48.3879 53.7831 49.5697 54.8385 50.9504 55.4063C52.3312 55.974 53.8374 56.0237 55.2452 55.548C56.653 55.0723 57.8873 54.0966 58.7649 52.7658C59.6424 51.435 60.1163 49.8201 60.1162 48.161C60.1152 47.8696 60.0996 47.5785 60.0697 47.2891C61.0609 47.132 61.4015 45.7479 62.3927 45.5907Z" fill="#2F2E41"/>
<path d="M239.901 94.3637C239.92 93.914 240.026 93.4745 240.212 93.076C240.397 92.6776 240.658 92.3299 240.975 92.0576C241.293 91.7852 241.659 91.5947 242.049 91.4996C242.439 91.4044 242.842 91.4069 243.231 91.5069L246.838 85.7679L250.461 87.392L245.267 95.4158C245.075 96.1421 244.654 96.7636 244.083 97.1626C243.512 97.5616 242.832 97.7104 242.17 97.5807C241.509 97.451 240.912 97.0519 240.494 96.459C240.076 95.8661 239.865 95.1206 239.901 94.3637Z" fill="#A0616A"/>
<path d="M243.858 89.4283L250.27 77.2511L247.658 69.3847L251.216 58.6708L251.347 58.7344C251.433 58.776 253.455 59.7947 253.755 63.4428L257.844 77.9531L246.931 93.9385L243.858 89.4283Z" fill="#3F3D56"/>
<path d="M209.029 44.661C209.425 44.717 209.805 44.8702 210.142 45.11C210.48 45.3497 210.767 45.6701 210.983 46.0485C211.199 46.4269 211.338 46.8542 211.392 47.3003C211.446 47.7463 211.413 48.2003 211.294 48.6302L216.083 53.134L214.369 57.0873L207.685 50.6198C207.059 50.3475 206.543 49.8252 206.234 49.1519C205.926 48.4786 205.847 47.701 206.013 46.9664C206.179 46.2319 206.577 45.5915 207.133 45.1666C207.689 44.7417 208.364 44.5618 209.029 44.661Z" fill="#A0616A"/>
<path d="M213.082 49.4963L223.339 57.6565L230.487 55.3237L239.673 60.1576L239.607 60.3004C239.564 60.3941 238.508 62.5913 235.263 62.6466L222.133 66.1278L208.861 52.6067L213.082 49.4963Z" fill="#3F3D56"/>
<path d="M231.851 148.728H228.285L226.588 133.198L231.851 133.199L231.851 148.728Z" fill="#A0616A"/>
<path d="M225.738 147.577H232.615V152.466H221.407C221.407 151.824 221.519 151.189 221.737 150.595C221.955 150.002 222.274 149.463 222.676 149.009C223.078 148.555 223.555 148.195 224.081 147.95C224.606 147.704 225.169 147.577 225.738 147.577Z" fill="#2F2E41"/>
<path d="M246.103 148.728H242.537L240.841 133.198L246.104 133.199L246.103 148.728Z" fill="#A0616A"/>
<path d="M239.99 147.577H246.867V152.466H235.66C235.66 151.824 235.772 151.189 235.99 150.595C236.207 150.002 236.526 149.463 236.928 149.009C237.33 148.555 237.808 148.195 238.333 147.95C238.858 147.704 239.421 147.577 239.99 147.577Z" fill="#2F2E41"/>
<path d="M247.371 92.0444L247.081 115.032L246.79 145.245L240.391 144.588L237.191 102.882L233.119 144.588H226.513L225.847 102.553L228.174 93.3578L247.371 92.0444Z" fill="#2F2E41"/>
<path d="M227.536 93.4982L226.562 93.4506L231.09 65.2872L229.236 56.7747C229.139 56.3318 229.19 55.8645 229.379 55.4611C229.567 55.0577 229.88 54.7464 230.258 54.5862L233.594 53.174L234.773 49.5148L244.071 50.646L244.299 53.5058C245.307 53.8706 253.604 56.9905 253.032 60.5454C252.467 64.0542 249.13 75.0935 248.961 75.6529L248.377 91.4846L248.305 91.5251C248.218 91.574 241.809 95.1319 234.847 95.1313C232.335 95.1787 229.843 94.622 227.536 93.4982Z" fill="#3F3D56"/>
<path d="M239.057 47.7039C242.755 47.7039 245.752 44.3197 245.752 40.1452C245.752 35.9706 242.755 32.5865 239.057 32.5865C235.36 32.5865 232.362 35.9706 232.362 40.1452C232.362 44.3197 235.36 47.7039 239.057 47.7039Z" fill="#A0616A"/>
<path d="M244.48 47.4623C243.204 48.9967 240.835 48.173 240.668 46.0767C240.655 45.9139 240.656 45.7502 240.671 45.5876C240.757 44.659 241.232 43.816 241.118 42.8356C241.093 42.5916 241.012 42.3591 240.884 42.16C239.868 40.6229 237.481 42.8475 236.522 41.456C235.933 40.6028 236.625 39.2594 236.173 38.3057C235.577 37.047 233.812 37.6679 232.706 36.9786C231.474 36.2117 231.548 34.0783 232.358 32.7807C233.347 31.1982 235.08 30.3538 236.792 30.2321C238.504 30.1104 240.204 30.6329 241.802 31.3361C243.618 32.135 245.419 33.2392 246.536 35.0419C247.895 37.2342 248.026 40.1815 247.346 42.7449C246.933 44.3043 245.522 46.2092 244.48 47.4623Z" fill="#2F2E41"/>
<path d="M171.945 146.64L172.94 143.751L163.546 138.045L162.078 142.308L171.945 146.64Z" fill="#FFB8B8"/>
<path d="M177.274 139.105C176.853 138.919 176.403 138.83 175.951 138.841C175.498 138.852 175.052 138.964 174.638 139.169C174.224 139.375 173.85 139.671 173.537 140.04C173.224 140.409 172.979 140.844 172.815 141.321L172.145 143.268L171.11 146.273L170.857 147.01L174.172 148.466L177.379 139.151L177.274 139.105Z" fill="#2F2E41"/>
<path d="M171.111 141.081L170.678 142.376L169.598 145.609L169.572 145.69C166.822 146.089 163.807 145.306 161.018 144.091C159.902 143.605 158.809 143.055 157.744 142.442C156.167 141.542 154.755 140.592 153.628 139.78C151.932 138.551 150.883 137.628 150.883 137.628C150.883 137.628 150.606 137.911 150.105 138.396C149.433 139.045 148.359 140.059 146.999 141.252C146.48 141.71 145.923 142.19 145.327 142.69C140.939 146.365 135.307 136.559 135.307 136.559C135.307 136.559 136.891 135.42 137.305 135.199C138.637 134.488 141.768 132.808 144.468 131.316C145.859 130.546 147.135 129.824 147.991 129.311C151.024 127.488 154.794 130.937 154.794 130.937L171.111 141.081Z" fill="#2F2E41"/>
<path opacity="0.14" d="M171.111 141.081L170.678 142.376L169.598 145.609L169.572 145.69C166.822 146.089 163.807 145.306 161.018 144.091C159.902 143.605 158.809 143.055 157.744 142.442C156.167 141.542 154.755 140.592 153.628 139.78C151.932 138.551 150.883 137.628 150.883 137.628C150.883 137.628 150.606 137.911 150.105 138.396C149.433 139.045 148.359 140.059 146.999 141.252C146.48 141.71 145.923 142.19 145.327 142.69C140.939 146.365 135.307 136.559 135.307 136.559C135.307 136.559 136.891 135.42 137.305 135.199C138.637 134.488 141.768 132.808 144.468 131.316C145.859 130.546 147.135 129.824 147.991 129.311C151.024 127.488 154.794 130.937 154.794 130.937L171.111 141.081Z" fill="black"/>
<path d="M127.215 113.894H114.23C113.963 113.894 113.707 113.774 113.518 113.561C113.329 113.348 113.223 113.058 113.222 112.757V106.437C113.222 104.192 114.013 102.038 115.419 100.45C116.826 98.8615 118.733 97.9694 120.723 97.9694C122.712 97.9694 124.619 98.8615 126.026 100.45C127.433 102.038 128.223 104.192 128.223 106.437V112.757C128.223 113.058 128.116 113.348 127.927 113.561C127.739 113.774 127.482 113.894 127.215 113.894Z" fill="#2F2E41"/>
<path d="M139.564 121.832C139.262 121.892 138.975 122.026 138.724 122.225C138.472 122.423 138.262 122.682 138.109 122.982C137.956 123.282 137.862 123.617 137.836 123.962C137.809 124.307 137.85 124.655 137.956 124.98L134.425 128.647L135.875 131.613L140.797 126.356C141.269 126.12 141.649 125.696 141.863 125.165C142.078 124.635 142.112 124.034 141.96 123.476C141.808 122.918 141.481 122.443 141.039 122.14C140.597 121.837 140.073 121.727 139.564 121.832Z" fill="#FFB8B8"/>
<path d="M128.94 138.503C128.78 138.503 128.62 138.495 128.46 138.48C127.508 138.39 126.591 138.029 125.796 137.429C125.001 136.83 124.354 136.012 123.916 135.053L118.259 122.76C117.888 121.955 117.807 121.019 118.032 120.147C118.257 119.276 118.771 118.536 119.467 118.081C120.162 117.626 120.987 117.492 121.768 117.706C122.549 117.92 123.227 118.466 123.661 119.23L128.88 132.451L135.982 125.937L140.094 127.744L133.15 136.399C132.616 137.061 131.966 137.59 131.241 137.952C130.516 138.314 129.732 138.502 128.94 138.503Z" fill="#20B84B"/>
<path d="M171.152 150.702L172.34 147.909L163.362 141.405L161.608 145.528L171.152 150.702Z" fill="#FFB8B8"/>
<path d="M176.978 143.652C176.57 143.43 176.128 143.302 175.676 143.274C175.224 143.246 174.772 143.318 174.345 143.487C173.918 143.657 173.525 143.919 173.188 144.26C172.851 144.601 172.577 145.014 172.381 145.474L171.58 147.357L170.344 150.264L170.042 150.977L173.248 152.716L177.078 143.707L176.978 143.652Z" fill="#2F2E41"/>
<path d="M170.698 145.088L170.178 146.341L168.882 149.471L168.851 149.549C166.081 149.708 163.128 148.667 160.43 147.213C159.351 146.632 158.299 145.988 157.278 145.285C155.767 144.251 154.423 143.182 153.355 142.274C151.748 140.902 150.765 139.89 150.765 139.89C150.765 139.89 150.47 140.148 149.937 140.588C149.223 141.177 148.083 142.095 146.646 143.166C146.097 143.578 145.509 144.008 144.881 144.456C140.256 147.739 133.678 151.738 128.083 152.582C118.257 154.066 120.57 139.261 120.57 139.261L128.39 134.676L131.71 135.436L135.406 136.281L136.716 136.582C136.716 136.582 136.965 136.475 137.392 136.291C138.769 135.697 142.004 134.294 144.799 133.04C146.238 132.393 147.559 131.784 148.448 131.347C151.596 129.792 155.12 133.558 155.12 133.558L170.698 145.088Z" fill="#2F2E41"/>
<path d="M106.259 152.936C106.558 152.858 106.839 152.708 107.081 152.495C107.323 152.281 107.521 152.011 107.66 151.702C107.799 151.394 107.877 151.054 107.888 150.708C107.899 150.362 107.842 150.017 107.722 149.698L111.08 145.83L109.496 142.952L104.821 148.49C104.36 148.753 104.001 149.198 103.811 149.741C103.621 150.284 103.614 150.886 103.791 151.434C103.968 151.982 104.318 152.438 104.773 152.714C105.227 152.991 105.756 153.07 106.259 152.936Z" fill="#FFB8B8"/>
<path d="M122.561 114.177C125.453 114.177 127.797 111.53 127.797 108.265C127.797 105 125.453 102.353 122.561 102.353C119.669 102.353 117.325 105 117.325 108.265C117.325 111.53 119.669 114.177 122.561 114.177Z" fill="#FFB8B8"/>
<path d="M115.749 124.675L120.31 139.274L120.283 139.325C119.649 140.509 119.441 141.464 119.684 142.087C119.747 142.245 119.841 142.386 119.957 142.5C120.074 142.614 120.211 142.697 120.359 142.745L131.153 134.228L130.775 130.814L130.796 130.776C131.839 128.891 132.177 127.184 131.8 125.703C131.458 124.504 130.721 123.5 129.741 122.9L129.704 122.866L124.32 115.469L117.124 116.912L115.749 124.675Z" fill="#20B84B"/>
<path d="M108.813 150.3L105.758 146.054L113.124 132.326L116.558 120.341C116.745 119.686 117.055 119.085 117.466 118.577C117.877 118.068 118.38 117.666 118.94 117.395C119.501 117.125 120.106 116.994 120.715 117.01C121.325 117.026 121.924 117.19 122.473 117.489C123.021 117.789 123.507 118.218 123.896 118.748C124.285 119.277 124.57 119.895 124.73 120.559C124.89 121.223 124.922 121.918 124.824 122.597C124.726 123.276 124.5 123.924 124.162 124.496L117.857 135.16L108.813 150.3Z" fill="#20B84B"/>
<path d="M129.997 107.069H122.057L121.975 105.782L121.568 107.069H120.346L120.184 104.518L119.378 107.069H117.012V106.943C117.014 105.167 117.639 103.464 118.751 102.209C119.864 100.953 121.372 100.246 122.945 100.244H124.064C125.637 100.246 127.145 100.953 128.258 102.209C129.37 103.464 129.995 105.167 129.997 106.943V107.069Z" fill="#2F2E41"/>
<path d="M121.992 115.074C121.932 115.074 121.872 115.068 121.814 115.056L115.999 113.898V103.049H122.4L122.241 103.257C120.037 106.16 121.698 110.868 122.884 113.415C122.971 113.602 123.01 113.812 122.996 114.023C122.982 114.233 122.916 114.435 122.805 114.605C122.712 114.75 122.59 114.868 122.448 114.95C122.307 115.031 122.151 115.074 121.992 115.074Z" fill="#2F2E41"/>
<path d="M208.859 95.6371V110.921H148.888L140.228 122.652L141.217 110.921H137.004V95.6371H208.859Z" fill="#F0F0F0"/>
<path d="M161.936 106.025C163.291 106.025 164.39 104.785 164.39 103.255C164.39 101.725 163.291 100.485 161.936 100.485C160.581 100.485 159.483 101.725 159.483 103.255C159.483 104.785 160.581 106.025 161.936 106.025Z" fill="white"/>
<path d="M153.656 106.025C155.011 106.025 156.109 104.785 156.109 103.255C156.109 101.725 155.011 100.485 153.656 100.485C152.301 100.485 151.202 101.725 151.202 103.255C151.202 104.785 152.301 106.025 153.656 106.025Z" fill="white"/>
<path d="M145.375 106.025C146.73 106.025 147.829 104.785 147.829 103.255C147.829 101.725 146.73 100.485 145.375 100.485C144.02 100.485 142.922 101.725 142.922 103.255C142.922 104.785 144.02 106.025 145.375 106.025Z" fill="white"/>
<path d="M279.693 152.77H0.306681C0.225344 152.77 0.147339 152.733 0.0898246 152.668C0.0323107 152.603 0 152.515 0 152.423C0 152.331 0.0323107 152.243 0.0898246 152.178C0.147339 152.114 0.225344 152.077 0.306681 152.077H279.693C279.775 152.077 279.853 152.114 279.91 152.178C279.968 152.243 280 152.331 280 152.423C280 152.515 279.968 152.603 279.91 152.668C279.853 152.733 279.775 152.77 279.693 152.77Z" fill="#CACACA"/>
</g>
<defs>
<clipPath id="clip0_2188_15451">
<rect width="280" height="153" fill="white"/>
</clipPath>
</defs>
</svg>
