<svg width="20" height="16" viewBox="0 0 20 16" fill="none" xmlns="http://www.w3.org/2000/svg">
<path d="M17.3911 4.37728C17.7657 3.9153 17.9907 3.32737 17.9907 2.68766C17.9907 1.20568 16.785 0 15.303 0C13.8211 0 12.6154 1.20568 12.6154 2.68766C12.6154 3.32777 12.8407 3.91601 13.2157 4.37814C12.8607 4.49133 12.5236 4.65713 12.2165 4.86986C11.7317 4.16404 10.9191 3.70003 10 3.70003C9.08086 3.70003 8.26835 4.16404 7.78348 4.86986C7.47638 4.65709 7.13934 4.49133 6.78434 4.37814C7.1593 3.91601 7.38459 3.32777 7.38459 2.68766C7.38459 1.20568 6.17891 0 4.69697 0C3.215 0 2.00932 1.20568 2.00932 2.68766C2.00932 3.32737 2.23433 3.91526 2.60887 4.37728C1.09762 4.85933 0 6.27661 0 7.9456V11.2725C0 11.5968 0.262867 11.8597 0.587107 11.8597H5.30314V14.9725C5.30314 15.2967 5.56601 15.5596 5.89025 15.5596H14.1098C14.434 15.5596 14.6969 15.2967 14.6969 14.9725V11.8597H19.4129C19.7371 11.8597 20 11.5968 20 11.2725V7.9456C20 6.27661 18.9024 4.85933 17.3911 4.37728ZM15.3031 1.17422C16.1376 1.17422 16.8165 1.85315 16.8165 2.68766C16.8165 3.52163 16.1384 4.20021 15.3046 4.20103H15.3016C14.4678 4.20021 13.7897 3.52163 13.7897 2.68766C13.7897 1.85315 14.4686 1.17422 15.3031 1.17422ZM10 4.87425C10.8403 4.87425 11.5248 5.56347 11.5129 6.40996C11.5007 7.23728 10.8242 7.9011 10 7.9011C9.16279 7.9011 8.48656 7.21814 8.48656 6.38769C8.48656 5.56429 9.15543 4.87425 10 4.87425ZM4.69697 1.17422C5.53145 1.17422 6.21038 1.85315 6.21038 2.68766C6.21038 3.52163 5.53227 4.20021 4.6985 4.20103H4.69549C3.86164 4.20021 3.18357 3.52163 3.18357 2.68766C3.18353 1.85315 3.86246 1.17422 4.69697 1.17422ZM1.17421 7.9456C1.17421 6.52828 2.32725 5.37524 3.74457 5.37524H5.64954C6.27195 5.37524 6.87342 5.60336 7.33892 6.00893C7.23383 6.75049 7.44507 7.5021 7.91021 8.07739C6.69357 8.46515 5.75299 9.45603 5.42781 10.6854H3.67881V8.48821C3.67881 8.16397 3.41595 7.9011 3.09171 7.9011C2.76747 7.9011 2.5046 8.16397 2.5046 8.48821V10.6854H1.17421V7.9456ZM13.5226 14.3854H12.3484V12.6502C12.3484 12.3259 12.0856 12.0631 11.7613 12.0631C11.4371 12.0631 11.1742 12.3259 11.1742 12.6502V14.3854H8.82579V12.6502C8.82579 12.3259 8.56292 12.0631 8.23868 12.0631C7.91444 12.0631 7.65157 12.3259 7.65157 12.6502V14.3854H6.47736V11.6456C6.47736 10.2339 7.62566 9.07531 9.0476 9.07531H10.9524C12.3724 9.07531 13.5226 10.2318 13.5226 11.6456V14.3854ZM18.8258 10.6854H17.4954V8.48821C17.4954 8.16397 17.2325 7.9011 16.9083 7.9011C16.5841 7.9011 16.3212 8.16397 16.3212 8.48821V10.6854H14.5722C14.2492 9.46414 13.3144 8.4677 12.0898 8.07739C12.5387 7.52218 12.7697 6.77573 12.6611 6.00893C13.1266 5.60336 13.7281 5.37524 14.3505 5.37524H16.2554C17.6727 5.37524 18.8258 6.52828 18.8258 7.9456V10.6854Z" fill="#035350"/>
</svg>
