<svg width="18" height="9" viewBox="0 0 18 9" fill="none" xmlns="http://www.w3.org/2000/svg">
<path fill-rule="evenodd" clip-rule="evenodd" d="M14.6256 1.99795C15.0903 1.72928 15.6853 1.88716 15.9547 2.35058L17.8686 5.64301C18.1379 6.10643 17.9796 6.69991 17.515 6.96858C17.0503 7.23725 16.4553 7.07937 16.1859 6.61594L14.272 3.32352C14.0026 2.86009 14.1609 2.26662 14.6256 1.99795Z" fill="#B7BEC0"/>
<path fill-rule="evenodd" clip-rule="evenodd" d="M11.025 3.7156C11.5539 3.62265 12.0583 3.97497 12.1515 4.50252L12.7448 7.86163C12.838 8.38917 12.4848 8.89218 11.9558 8.98512C11.4269 9.07807 10.9225 8.72575 10.8293 8.1982L10.236 4.83909C10.1428 4.31155 10.496 3.80854 11.025 3.7156Z" fill="#B7BEC0"/>
<path fill-rule="evenodd" clip-rule="evenodd" d="M6.97439 3.70719C7.50338 3.79991 7.85685 4.30277 7.76388 4.83036L7.1705 8.1978C7.07754 8.72539 6.57334 9.07792 6.04435 8.9852C5.51536 8.89248 5.16189 8.38962 5.25486 7.86204L5.84823 4.49459C5.9412 3.967 6.4454 3.61447 6.97439 3.70719Z" fill="#B7BEC0"/>
<path fill-rule="evenodd" clip-rule="evenodd" d="M3.37232 1.99688C3.83757 2.26454 3.99717 2.85767 3.7288 3.32168L1.81495 6.63078C1.54658 7.09479 0.95187 7.25397 0.486623 6.98631C0.0213767 6.71866 -0.138226 6.12553 0.13014 5.66152L2.044 2.35242C2.31236 1.88841 2.90707 1.72923 3.37232 1.99688Z" fill="#B7BEC0"/>
<path fill-rule="evenodd" clip-rule="evenodd" d="M0.36985 0.215412C0.787681 -0.121171 1.39998 -0.0562052 1.73746 0.360516C3.03408 1.96159 5.35697 3.92594 9.00406 3.92594C12.6511 3.92594 14.974 1.96159 16.2707 0.360516C16.6081 -0.0562052 17.2204 -0.121171 17.6383 0.215412C18.0561 0.551995 18.1212 1.16267 17.7838 1.57939C16.2723 3.44578 13.447 5.86578 9.00406 5.86578C4.56114 5.86578 1.73584 3.44578 0.224359 1.57939C-0.11312 1.16267 -0.0479815 0.551995 0.36985 0.215412Z" fill="#B7BEC0"/>
</svg>
