<svg width="18" height="12" viewBox="0 0 18 12" fill="none" xmlns="http://www.w3.org/2000/svg">
<path fill-rule="evenodd" clip-rule="evenodd" d="M2.14746 2.80644C3.56829 1.41502 5.80951 0 9.00049 0C12.1915 0 14.4327 1.41502 15.8535 2.80644C16.5612 3.49946 17.071 4.19085 17.4051 4.71057C17.5727 4.97116 17.6974 5.19071 17.7819 5.34869C17.8242 5.42775 17.8565 5.49159 17.8792 5.53768C17.8905 5.56073 17.8994 5.57936 17.906 5.59325L17.9141 5.6105L17.9168 5.6164L17.9178 5.61865L17.9182 5.6196C17.9184 5.62002 17.9186 5.62043 17.0465 6C17.9186 6.37957 17.9184 6.37998 17.9182 6.3804L17.9178 6.38135L17.9168 6.3836L17.9141 6.3895L17.906 6.40675C17.8994 6.42064 17.8905 6.43927 17.8792 6.46232C17.8565 6.50841 17.8242 6.57225 17.7819 6.65131C17.6974 6.80929 17.5727 7.02884 17.4051 7.28943C17.071 7.80915 16.5612 8.50054 15.8535 9.19356C14.4327 10.585 12.1915 12 9.00049 12C5.80951 12 3.56829 10.585 2.14746 9.19356C1.4398 8.50054 0.929997 7.80915 0.595853 7.28943C0.428312 7.02884 0.30357 6.80929 0.219069 6.65131C0.176783 6.57225 0.144465 6.50841 0.121807 6.46232C0.110475 6.43927 0.101549 6.42064 0.0949897 6.40675L0.0869183 6.3895L0.0842028 6.3836L0.0831732 6.38135L0.0827404 6.3804C0.0825467 6.37998 0.082362 6.37957 0.954438 6C0.082362 5.62043 0.0825467 5.62002 0.0827404 5.6196L0.0831732 5.61865L0.0842028 5.6164L0.0869183 5.6105L0.0949897 5.59325C0.101549 5.57936 0.110475 5.56073 0.121807 5.53768C0.144465 5.49159 0.176783 5.42775 0.219069 5.34869C0.30357 5.19071 0.428312 4.97116 0.595853 4.71057C0.929997 4.19085 1.4398 3.49946 2.14746 2.80644ZM0.954438 6L0.0827404 5.6196C-0.0269291 5.86125 -0.0269291 6.13875 0.0827404 6.3804L0.954438 6ZM2.03085 6C2.08135 5.91356 2.14132 5.8149 2.21102 5.70648C2.48751 5.27644 2.91163 4.70148 3.49708 4.12814C4.66249 2.98685 6.44429 1.86916 9.00049 1.86916C11.5567 1.86916 13.3385 2.98685 14.5039 4.12814C15.0893 4.70148 15.5135 5.27644 15.79 5.70648C15.8597 5.8149 15.9196 5.91356 15.9701 6C15.9196 6.08644 15.8597 6.1851 15.79 6.29352C15.5135 6.72356 15.0893 7.29852 14.5039 7.87186C13.3385 9.01315 11.5567 10.1308 9.00049 10.1308C6.44429 10.1308 4.66249 9.01315 3.49708 7.87186C2.91163 7.29852 2.48751 6.72356 2.21102 6.29352C2.14132 6.1851 2.08135 6.08644 2.03085 6ZM17.0465 6L17.9182 6.3804C18.0279 6.13875 18.0279 5.86125 17.9182 5.6196L17.0465 6Z" fill="#6A6E70"/>
<path fill-rule="evenodd" clip-rule="evenodd" d="M9.00051 4.12046C7.94053 4.12046 7.08125 4.96196 7.08125 6C7.08125 7.03804 7.94053 7.87954 9.00051 7.87954C10.0605 7.87954 10.9198 7.03804 10.9198 6C10.9198 4.96196 10.0605 4.12046 9.00051 4.12046ZM5.17259 6C5.17259 3.92965 6.88641 2.2513 9.00051 2.2513C11.1146 2.2513 12.8284 3.92965 12.8284 6C12.8284 8.07035 11.1146 9.7487 9.00051 9.7487C6.88641 9.7487 5.17259 8.07035 5.17259 6Z" fill="#6A6E70"/>
</svg>
