<svg width="22" height="22" viewBox="0 0 22 22" fill="none" xmlns="http://www.w3.org/2000/svg">
<path d="M15 6.2H19V7.8H17.4V18.2C17.4 18.4122 17.3157 18.6157 17.1657 18.7657C17.0157 18.9157 16.8122 19 16.6 19H5.4C5.18783 19 4.98434 18.9157 4.83431 18.7657C4.68429 18.6157 4.6 18.4122 4.6 18.2V7.8H3V6.2H7V3.8C7 3.58783 7.08429 3.38434 7.23431 3.23431C7.38434 3.08429 7.58783 3 7.8 3H14.2C14.4122 3 14.6157 3.08429 14.7657 3.23431C14.9157 3.38434 15 3.58783 15 3.8V6.2ZM15.8 7.8H6.2V17.4H15.8V7.8ZM8.6 10.2H10.2V15H8.6V10.2ZM11.8 10.2H13.4V15H11.8V10.2ZM8.6 4.6V6.2H13.4V4.6H8.6Z" fill="#ED3838"/>
</svg>
