<svg width="280" height="243" viewBox="0 0 280 243" fill="none" xmlns="http://www.w3.org/2000/svg">
<g clip-path="url(#clip0_239_2292)">
<path d="M116.471 211.107L119.529 201.071C115.849 196.99 111.237 193.876 106.092 191.999C111.118 200.391 106.248 211.338 108.277 220.924C108.933 223.909 110.247 226.707 112.122 229.111C113.997 231.515 116.384 233.463 119.107 234.81L123.748 240.605C126.181 236.321 127.664 231.557 128.094 226.641C128.523 221.725 127.891 216.773 126.239 212.127C125.286 209.529 124.013 207.063 122.449 204.787C119.691 208.054 116.471 211.107 116.471 211.107Z" fill="#F2F2F2"/>
<path d="M99.6564 212.389L97.9518 202.032C92.8524 200.033 87.3457 199.319 81.9102 199.951C90.1231 205.203 90.6085 217.19 96.6678 224.858C98.5758 227.235 100.99 229.149 103.732 230.458C106.474 231.767 109.473 232.437 112.506 232.419L119.225 235.52C119.506 230.593 118.725 225.663 116.934 221.069C115.143 216.475 112.385 212.328 108.85 208.912C106.848 207.015 104.617 205.38 102.21 204.045C101.188 208.209 99.6564 212.389 99.6564 212.389Z" fill="#F2F2F2"/>
<path d="M199.747 238.029L195.036 238.028L192.795 219.719L199.747 219.719L199.747 238.029Z" fill="#FFB6B6"/>
<path d="M200.949 242.63L185.76 242.63V242.436C185.76 240.856 186.383 239.341 187.491 238.223C188.6 237.106 190.104 236.479 191.672 236.479H191.672L194.447 234.357L199.623 236.479L200.949 236.479L200.949 242.63Z" fill="#2F2E41"/>
<path d="M275.84 220.714L272.628 224.187L257.809 213.355L262.549 208.23L275.84 220.714Z" fill="#FFB6B6"/>
<path d="M280.001 222.966L269.645 234.162L269.504 234.03C268.357 232.953 267.682 231.461 267.627 229.882C267.572 228.303 268.141 226.766 269.21 225.61L269.21 225.61L269.562 222.119L274.632 219.749L275.536 218.771L280.001 222.966Z" fill="#2F2E41"/>
<path d="M268.87 210.425L263.891 220.918L233.316 200.519L228.868 194.412L214.284 174.388L208.356 183.867L204.231 193.776C202.887 194.66 201.754 195.834 200.914 197.212C200.075 198.591 199.55 200.14 199.377 201.748L199.188 203.502L201.795 227.116L191.887 230.181L186.197 198.46L188.057 191.586L189.972 181.937L199.614 151.447H225.414L240.212 183.189L241.294 189.656L245.49 194.509L268.87 210.425Z" fill="#2F2E41"/>
<path d="M215.252 101.562L219.596 104.895L224.834 106.517C224.834 106.517 226.999 137.211 228.95 139.177C230.901 141.144 229.141 141.196 229.534 143.751C229.926 146.305 230.878 151.541 230.878 151.541C217.708 158.566 206.354 158.754 197.234 150.533C197.117 150.025 197.177 149.491 197.402 149.022C197.628 148.552 198.006 148.173 198.474 147.95C200.171 147.042 196.909 142.806 198.296 142.098C199.683 141.389 197.732 135.245 197.732 135.245L199.012 122.425L198.001 120.376L200.469 107.837L204.75 106.261L206.461 102.108L215.252 101.562Z" fill="#3F3D56"/>
<path d="M217.973 156.116C217.954 155.562 218.055 155.01 218.27 154.499C218.485 153.989 218.809 153.532 219.218 153.161C219.627 152.79 220.112 152.514 220.639 152.352C221.165 152.191 221.72 152.147 222.265 152.225L228.386 140.236L231.797 146.342L225.461 156.791C225.27 157.705 224.754 158.516 224.009 159.072C223.264 159.627 222.343 159.888 221.42 159.805C220.497 159.722 219.636 159.3 219.001 158.62C218.365 157.94 218 157.049 217.973 156.116H217.973Z" fill="#FFB6B6"/>
<path d="M228.282 153.183L241.41 132.679L241.367 132.584C241.317 132.476 238.344 126.006 235.464 120.08C235.02 119.167 234.579 118.267 234.15 117.406C233.966 117.034 233.784 116.67 233.604 116.313C232.394 113.91 231.337 111.923 230.706 110.979C229.311 108.846 227.233 107.257 224.818 106.478L224.757 106.462L224.699 106.486C223.518 106.989 222.541 107.882 221.931 109.018C221.321 110.154 221.114 111.466 221.343 112.738C222.482 118.87 225.019 124.651 228.755 129.625L230.883 132.452L223.487 148.656L228.282 153.183Z" fill="#3F3D56"/>
<path d="M183.136 74.5858C183.498 75.004 183.764 75.4971 183.916 76.0302C184.068 76.5633 184.102 77.1235 184.016 77.6713C183.93 78.2191 183.726 78.7413 183.417 79.201C183.109 79.6606 182.705 80.0466 182.233 80.3318L184.97 93.5294L178.505 90.9502L176.898 78.813C176.475 77.982 176.369 77.0236 176.601 76.1194C176.832 75.2151 177.385 74.4279 178.154 73.9068C178.923 73.3858 179.855 73.1671 180.773 73.2922C181.691 73.4174 182.532 73.8776 183.136 74.5858H183.136Z" fill="#FFB6B6"/>
<path d="M176.961 83.4053L179.575 107.665L179.668 107.711C179.744 107.748 183.056 109.385 187.121 111.335C187.807 111.664 187.709 113.088 188.426 113.429C188.919 113.663 190.223 112.812 190.722 113.048C195.166 115.142 199.659 117.178 201.45 117.73C203.867 118.501 206.474 118.417 208.837 117.49L208.894 117.464L208.924 117.408C209.528 116.268 209.728 114.955 209.492 113.685C209.256 112.415 208.597 111.264 207.625 110.422C202.909 106.381 197.325 103.5 191.314 102.007L187.894 101.161L183.514 83.8795L176.961 83.4053Z" fill="#3F3D56"/>
<path d="M210.622 100.187C215.367 100.187 219.213 96.3115 219.213 91.5302C219.213 86.749 215.367 82.873 210.622 82.873C205.878 82.873 202.031 86.749 202.031 91.5302C202.031 96.3115 205.878 100.187 210.622 100.187Z" fill="#FFB6B6"/>
<path d="M202.093 85.7295C202.799 83.6583 206.316 82.2217 212.018 82.0219C217.72 81.8222 219.166 88.593 219.166 88.593C222.972 91.7044 215.101 100.035 214.721 99.7345L214.892 98.1695C215.175 95.5771 216.38 93.5544 214.848 90.8528L213.377 90.8698C211.477 91.238 209.577 91.6061 207.677 91.9743L209.926 89.9786L209.863 89.8797C208.906 90.3819 207.865 90.7004 206.793 90.8191C205.584 90.8907 204.262 90.4059 203.683 89.334C203.528 89.0394 203.434 88.7166 203.405 88.3846C201.775 89.0409 201.029 91.0662 201.029 91.0662C201.029 91.0662 201.386 87.8007 202.093 85.7295Z" fill="#2F2E41"/>
<path d="M34.6122 86.2485C34.4956 86.0996 34.3701 85.958 34.2363 85.8245C34.269 85.7792 34.3017 85.7298 34.3344 85.6846L34.6122 86.2485Z" fill="#2F2E41"/>
<path d="M36.283 121.068C34.8777 123.583 32.0711 124.987 29.2892 125.674C26.1643 126.499 22.8738 126.435 19.783 125.489C19.3908 125.361 18.9986 125.213 18.6187 125.049C18.8014 124.56 18.9461 124.057 19.0517 123.546C19.1939 122.854 19.2651 122.149 19.2642 121.442C18.9546 122.051 18.5536 122.608 18.0754 123.093C17.7064 123.484 17.2874 123.823 16.8294 124.102C15.4088 123.233 14.1786 122.082 13.214 120.718C13.2753 120.566 13.3366 120.413 13.3938 120.261C13.6904 119.465 13.9254 118.648 14.0964 117.816C14.3285 116.69 14.4449 115.544 14.4437 114.395C13.94 115.385 13.2867 116.29 12.5073 117.079C12.2736 117.331 12.0254 117.568 11.7638 117.791C11.3588 116.551 11.2022 115.243 11.3032 113.942C11.4042 112.641 11.7607 111.373 12.3521 110.212C13.9698 107.199 17.1072 105.408 19.9015 103.461C22.6998 101.514 25.4981 98.8789 25.7351 95.458C25.8944 93.1485 24.8323 90.8349 25.2571 88.5625C25.4358 87.6043 25.872 86.7138 26.5182 85.9881C27.1645 85.2624 27.9959 84.7294 28.922 84.447C29.8482 84.1647 30.8334 84.1438 31.7705 84.3868C32.7075 84.6298 33.5604 85.1272 34.2363 85.8249C32.6512 88.0891 31.0744 90.4315 30.433 93.1238C29.7794 95.8655 30.3145 99.0806 32.4593 100.896C33.1946 101.522 34.0974 101.966 34.6652 102.749C35.421 103.786 35.4251 105.169 35.5476 106.445C35.7927 108.928 36.5975 111.315 37.0306 113.773C37.4677 116.227 37.4922 118.89 36.283 121.068Z" fill="#2F2E41"/>
<path d="M7.47656 223.155L11.205 226.058L24.0906 212.948L18.5877 208.663L7.47656 223.155Z" fill="#A0616A"/>
<path d="M7.63432 220.318L13.7998 224.553L11.8487 227.098L14.4617 235.36C14.5908 235.768 14.5871 236.207 14.4511 236.613C14.3151 237.019 14.054 237.37 13.7058 237.616C13.3576 237.862 12.9406 237.989 12.5156 237.979C12.0907 237.968 11.6801 237.822 11.3438 237.56L4.32718 232.096L5.04773 228.638L2.64554 230.787L0 228.727L7.63432 220.318Z" fill="#2F2E41"/>
<path d="M26.3906 93.5622C26.3901 95.0301 26.7471 96.4758 27.4305 97.7722C28.1138 99.0686 29.1025 100.176 30.3097 100.998C31.517 101.819 32.9059 102.33 34.3545 102.484C35.8032 102.638 37.2673 102.432 38.6183 101.883C39.9693 101.334 41.1659 100.459 42.1031 99.3351C43.0402 98.2112 43.6893 96.8728 43.9933 95.4371C44.2974 94.0015 44.247 92.5126 43.8467 91.1012C43.4464 89.6897 42.7084 88.3989 41.6975 87.342L41.6548 87.299C41.5836 87.2236 41.5124 87.1483 41.4376 87.0765C41.4371 87.0765 41.4367 87.0764 41.4363 87.0763C41.4358 87.0761 41.4354 87.0758 41.4351 87.0755C41.4348 87.0751 41.4345 87.0747 41.4343 87.0743C41.4341 87.0739 41.4341 87.0734 41.4341 87.0729C41.3415 86.9868 41.249 86.9007 41.1528 86.8182C39.5866 85.4336 37.3852 83.9307 35.139 83.9307C30.223 83.9307 26.3906 88.6083 26.3906 93.5622Z" fill="#2F2E41"/>
<path d="M77.1172 88.9575C77.1598 89.4358 77.0978 89.9177 76.9356 90.3693C76.7734 90.8209 76.5149 91.2311 76.1784 91.5711C75.8418 91.9111 75.4354 92.1726 74.9877 92.3372C74.54 92.5018 74.0619 92.5654 73.5872 92.5237L51.5501 112.574L47.7578 106.539L70.612 88.7274C70.7344 87.9284 71.1435 87.2023 71.7617 86.6869C72.3798 86.1714 73.1642 85.9024 73.966 85.9307C74.7679 85.9591 75.5315 86.2829 76.1123 86.8407C76.6931 87.3986 77.0507 88.1518 77.1172 88.9575V88.9575Z" fill="#A0616A"/>
<path d="M42.1315 118.626C42.1315 118.626 42.9514 120.152 45.7522 117.795C47.9944 115.909 58.7369 107.719 61.0512 104.363C61.5796 104.574 62.1627 104.602 62.7086 104.442C63.2544 104.283 63.7321 103.944 64.0662 103.481L57.7252 97.8848C55.828 98.1049 55.8686 99.3892 56.0662 100.118L51.2831 102.302L38.9316 110.257L41.5193 117.533L42.1315 118.626Z" fill="#20B84B"/>
<path d="M30.1646 132.686L29.7027 134.902L29.3105 143.078L46.5776 144.035L46.0414 131.46L44.3677 128.688L30.1646 132.686Z" fill="#A0616A"/>
<path d="M37.484 103.157C41.6054 103.157 44.9464 99.7904 44.9464 95.6372C44.9464 91.484 41.6054 88.1172 37.484 88.1172C33.3626 88.1172 30.0215 91.484 30.0215 95.6372C30.0215 99.7904 33.3626 103.157 37.484 103.157Z" fill="#A0616A"/>
<path d="M24.2353 123.375L24.1895 117.124C24.1884 114.875 24.9437 112.691 26.3322 110.93C27.7206 109.169 29.6603 107.935 31.8347 107.427L31.8629 107.421L33.3385 105.417L39.3337 106.021L40.4325 108.284L44.7767 110.891L46.4492 116.309C47.1747 116.797 47.793 117.429 48.2657 118.167C48.7383 118.905 49.0553 119.734 49.1969 120.601C49.7648 124.256 47.2251 127.913 46.9231 128.332L46.1447 132.75L29.2124 135.76L29.0749 135.778L24.2353 123.375Z" fill="#20B84B"/>
<path d="M46.6154 94.2969C45.7449 94.8525 44.8418 95.3543 43.9109 95.7995C42.9662 96.2568 41.978 96.6168 40.9615 96.874C40.6706 96.2309 40.3147 95.6197 39.8993 95.0503C40.0062 95.725 40.009 96.4124 39.9075 97.088C38.2225 97.362 36.4968 97.2193 34.8787 96.6723L33.4734 94.2969L33.3671 96.9481C32.2029 97.1621 31.0427 97.3639 29.8784 97.5738C29.809 97.582 29.7395 97.5985 29.6742 97.6109C28.9511 94.3258 29.9765 90.7072 32.256 88.5171C33.3878 87.4411 34.7996 86.7112 36.327 86.4124C37.8545 86.1136 39.4348 86.2582 40.8839 86.8293C41.0677 86.9034 41.2556 86.9857 41.4353 87.0722C41.4353 87.0727 41.4354 87.0733 41.4356 87.0738C41.4358 87.0743 41.4361 87.0747 41.4365 87.0751C41.4369 87.0755 41.4374 87.0758 41.4379 87.076C41.4384 87.0762 41.4389 87.0763 41.4394 87.0763C41.5457 87.1298 41.6355 87.2574 41.754 87.2451C46.8523 86.6728 47.0157 90.6578 46.6154 94.2969Z" fill="#2F2E41"/>
<path d="M34.2012 213.458L37.9354 216.353L50.7949 203.216L45.2836 198.943L34.2012 213.458Z" fill="#A0616A"/>
<path d="M34.6917 210.884L40.8656 215.106L38.9196 217.654L41.5492 225.912C41.6791 226.32 41.6763 226.759 41.5411 227.165C41.4059 227.571 41.1455 227.923 40.7978 228.169C40.4501 228.415 40.0333 228.543 39.6084 228.534C39.1834 228.525 38.7725 228.379 38.4357 228.118L31.4081 222.668L32.1218 219.208L29.7239 221.362L27.0742 219.308L34.6917 210.884Z" fill="#2F2E41"/>
<path d="M22.083 197.425L22.0829 197.376L23.8526 194.303L22.0455 190.302L21.9913 180.024L22.2842 178.481C22.6782 176.406 22.5636 174.265 21.9502 172.245L21.9172 165.988C21.8537 164.421 24.2631 163.043 23.7012 161.736C18.3905 149.386 29.1243 139.965 29.1968 139.889L29.4162 139.659L30.6063 140.568L31.739 140.569L47.0251 143.376L47.1355 143.583C47.7367 144.72 48.897 148.637 48.9659 150.409C49.7277 151.298 58.4056 161.417 59.177 162.12C64.3899 166.873 67.3745 174.74 68.6895 179.007C69.0161 180.061 69.082 181.18 68.8813 182.266C68.6806 183.352 68.2195 184.372 67.5382 185.237L47.8037 207.019L42.4929 202.079L53.1711 182.471L52.4011 180.482C51.0195 180.225 49.7692 179.493 48.8634 178.411L46.7012 175.824C46.1025 175.11 45.7221 174.237 45.606 173.309L44.2947 173.15L39.5977 168.181L36.339 197.919L35.4531 200.268L20.0245 218.546L13.4883 214.429L22.083 197.425Z" fill="#2F2E41"/>
<path d="M19.7274 69.7321C19.4309 70.1081 19.22 70.5451 19.1093 71.0122C18.9985 71.4793 18.9908 71.9652 19.0866 72.4356C19.1824 72.906 19.3794 73.3496 19.6637 73.735C19.948 74.1204 20.3127 74.4383 20.7321 74.6664L15.8262 89.3024L19.8321 104.813L26.2918 101.87L22.3057 90.1708L25.2879 73.142C25.6214 72.4066 25.6755 71.5735 25.4401 70.8005C25.2047 70.0276 24.6961 69.3685 24.0107 68.9482C23.3253 68.5278 22.5106 68.3755 21.7212 68.52C20.9318 68.6644 20.2223 69.0957 19.7274 69.7321Z" fill="#A0616A"/>
<path d="M25.6394 117.593C25.6394 117.593 24.1222 118.414 23.0671 114.894C22.2224 112.076 16.4736 96.7775 16.37 92.6921C15.8134 92.5757 15.3111 92.2761 14.9421 91.8404C14.5732 91.4047 14.3585 90.8576 14.332 90.2854L22.6814 89.1211C24.1466 90.3555 23.4122 91.4061 22.8495 91.9059L25.6933 96.76L31.6371 109.864L26.7466 117.019L25.6394 117.593Z" fill="#20B84B"/>
<path d="M29.877 97.5729C30.7344 94.9672 32.2718 92.6421 34.3281 90.8414C36.3843 89.0407 38.8835 87.8308 41.5636 87.3386C41.5743 87.3351 41.6099 87.3207 41.6561 87.2992C41.6846 87.2812 41.7202 87.2633 41.7558 87.2454C41.649 87.1844 41.5458 87.1306 41.439 87.0768C41.4385 87.0768 41.438 87.0767 41.4376 87.0765C41.4372 87.0763 41.4368 87.0761 41.4365 87.0757C41.4361 87.0754 41.4359 87.075 41.4357 87.0745C41.4355 87.0741 41.4354 87.0736 41.4354 87.0732C41.3429 86.9871 41.2503 86.901 41.1542 86.8185L40.8837 86.8293C40.8837 86.8293 31.3756 85.3119 29.877 97.5729Z" fill="#FD6584"/>
<path d="M152.564 181.372C153.602 179.801 152.988 177.551 151.192 176.347C149.397 175.143 147.1 175.442 146.063 177.013C145.025 178.585 145.639 180.835 147.434 182.039C149.23 183.243 151.526 182.944 152.564 181.372Z" fill="#F2F2F2"/>
<path d="M131.5 122.708C132.537 121.136 131.923 118.887 130.128 117.683C128.332 116.479 126.036 116.778 124.998 118.349C123.96 119.921 124.575 122.171 126.37 123.375C128.165 124.578 130.462 124.28 131.5 122.708Z" fill="#F2F2F2"/>
<path d="M219.59 213.021C220.627 211.449 220.013 209.199 218.218 207.995C216.422 206.792 214.126 207.09 213.088 208.662C212.05 210.234 212.664 212.484 214.46 213.687C216.255 214.891 218.552 214.593 219.59 213.021Z" fill="#F2F2F2"/>
<path d="M41.4958 24.2903C42.5335 22.7185 41.9193 20.4686 40.1239 19.2649C38.3285 18.0612 36.0319 18.3596 34.9942 19.9314C33.9565 21.5032 34.5707 23.7531 36.366 24.9568C38.1614 26.1605 40.4581 25.8621 41.4958 24.2903Z" fill="#F2F2F2"/>
<path d="M124.605 5.7649C125.643 4.19313 125.029 1.94319 123.233 0.73951C121.438 -0.464169 119.141 -0.165778 118.104 1.40599C117.066 2.97776 117.68 5.22773 119.475 6.43141C121.271 7.63509 123.567 7.33668 124.605 5.7649Z" fill="#F2F2F2"/>
<path d="M85.2712 161.193C86.3089 159.621 85.6947 157.371 83.8993 156.167C82.1039 154.964 79.8073 155.262 78.7696 156.834C77.7318 158.406 78.3461 160.655 80.1414 161.859C81.9368 163.063 84.2335 162.764 85.2712 161.193Z" fill="#E6E6E6"/>
<path d="M256.71 243H7.65002C7.5293 243 7.41365 242.951 7.32841 242.865C7.24317 242.779 7.19531 242.662 7.19531 242.541C7.19531 242.419 7.24317 242.302 7.32841 242.216C7.41365 242.13 7.5293 242.081 7.65002 242.081H256.71C256.831 242.081 256.947 242.129 257.033 242.216C257.118 242.302 257.166 242.419 257.166 242.541C257.166 242.662 257.118 242.779 257.033 242.866C256.947 242.952 256.831 243 256.71 243Z" fill="#CCCCCC"/>
<path d="M54.0057 90.375C51.9106 90.3689 49.8913 89.585 48.3337 88.173C46.7761 86.7611 45.7895 84.8202 45.5626 82.7214L40.7003 37.2152C40.4614 34.9558 41.1216 32.6932 42.5362 30.9237C43.9507 29.1543 46.004 28.0225 48.2456 27.7768L192.618 12.1118C194.86 11.871 197.105 12.5363 198.861 13.9617C200.617 15.3871 201.74 17.4562 201.984 19.7151L206.847 65.2212C207.086 67.4806 206.425 69.7433 205.011 71.5129C203.596 73.2824 201.543 74.4142 199.301 74.66L199.281 74.4681L199.301 74.66L54.9289 90.3249C54.6223 90.3583 54.3141 90.375 54.0057 90.375Z" fill="#E6E6E6"/>
<path d="M191.028 14.2246C190.757 14.2247 190.486 14.2394 190.216 14.2687L51.0495 29.3689C50.0764 29.4744 49.1335 29.7721 48.2745 30.2449C47.4156 30.7177 46.6575 31.3564 46.0435 32.1245C45.4295 32.8925 44.9717 33.7749 44.6961 34.7213C44.4205 35.6676 44.3326 36.6594 44.4374 37.64L46.8958 60.6484C47.2932 64.368 48.4137 67.9723 50.1934 71.2555C51.9731 74.5387 54.377 77.4365 57.2681 79.7835C60.1591 82.1304 63.4806 83.8806 67.0428 84.934C70.605 85.9874 74.3383 86.3234 78.0294 85.9229L175.887 75.3049C179.567 74.9057 183.133 73.7799 186.381 71.9919C189.629 70.204 192.496 67.7888 194.818 64.8843C197.14 61.9798 198.871 58.643 199.913 55.0642C200.955 51.4854 201.288 47.7348 200.892 44.0265L198.424 20.9318C198.227 19.0923 197.364 17.3906 195.999 16.1529C194.634 14.9152 192.864 14.2285 191.028 14.2246V14.2246Z" fill="white"/>
<path d="M161.722 38.169L83.9394 46.6087C83.717 46.6331 83.492 46.6131 83.2772 46.5499C83.0625 46.4866 82.8623 46.3813 82.6879 46.24C82.5136 46.0987 82.3687 45.9241 82.2613 45.7263C82.154 45.5285 82.0865 45.3113 82.0625 45.0872C82.0386 44.863 82.0587 44.6363 82.1218 44.42C82.1848 44.2037 82.2896 44.002 82.4301 43.8266C82.5705 43.6511 82.7439 43.5052 82.9404 43.3974C83.1368 43.2895 83.3525 43.2217 83.5749 43.1979L161.357 34.7582C161.58 34.7337 161.805 34.7537 162.019 34.817C162.234 34.8802 162.434 34.9855 162.609 35.1268C162.783 35.2682 162.928 35.4427 163.035 35.6405C163.142 35.8384 163.21 36.0555 163.234 36.2797C163.258 36.5039 163.238 36.7306 163.175 36.9469C163.112 37.1632 163.007 37.3648 162.866 37.5403C162.726 37.7158 162.553 37.8616 162.356 37.9695C162.16 38.0774 161.944 38.1452 161.722 38.169Z" fill="#20B84B"/>
<path d="M162.84 48.6375L85.0582 57.0772C84.6094 57.1259 84.1597 56.9929 83.8081 56.7075C83.4566 56.4222 83.2319 56.0077 83.1836 55.5554C83.1353 55.1031 83.2672 54.65 83.5504 54.2957C83.8337 53.9415 84.2449 53.7151 84.6938 53.6664L162.476 45.2267C162.925 45.178 163.374 45.3109 163.726 45.5963C164.078 45.8817 164.302 46.2961 164.351 46.7485C164.399 47.2008 164.267 47.6539 163.984 48.0082C163.701 48.3624 163.289 48.5888 162.84 48.6375Z" fill="#20B84B"/>
<path d="M95.2398 66.5616L86.1754 67.5451C85.7265 67.5938 85.2769 67.4608 84.9253 67.1754C84.5738 66.89 84.3491 66.4756 84.3008 66.0233C84.2525 65.571 84.3844 65.1179 84.6676 64.7636C84.9508 64.4093 85.3621 64.183 85.8109 64.1343L94.8753 63.1507C95.0977 63.1263 95.3227 63.1463 95.5375 63.2095C95.7522 63.2728 95.9524 63.3781 96.1268 63.5194C96.3011 63.6607 96.446 63.8353 96.5534 64.0331C96.6607 64.2309 96.7282 64.4481 96.7522 64.6723C96.7761 64.8964 96.756 65.1231 96.6929 65.3394C96.6299 65.5557 96.5251 65.7574 96.3846 65.9329C96.2442 66.1083 96.0708 66.2542 95.8743 66.3621C95.6779 66.4699 95.4622 66.5377 95.2398 66.5616Z" fill="#20B84B"/>
<path d="M50.9448 39.1352C52.637 39.1352 54.0088 37.7528 54.0088 36.0476C54.0088 34.3423 52.637 32.96 50.9448 32.96C49.2526 32.96 47.8809 34.3423 47.8809 36.0476C47.8809 37.7528 49.2526 39.1352 50.9448 39.1352Z" fill="#3F3D56"/>
<path d="M188.058 23.6977C189.75 23.6977 191.122 22.3153 191.122 20.6101C191.122 18.9048 189.75 17.5225 188.058 17.5225C186.366 17.5225 184.994 18.9048 184.994 20.6101C184.994 22.3153 186.366 23.6977 188.058 23.6977Z" fill="#3F3D56"/>
<path d="M146.634 87.0849C146.352 86.8358 146.129 86.5265 145.981 86.1797C145.833 85.8328 145.763 85.457 145.777 85.0797C145.931 80.595 145.198 76.1242 143.621 71.9278C143.487 71.575 143.433 71.1966 143.463 70.8202C143.493 70.4437 143.605 70.0786 143.792 69.7514C143.971 69.437 144.217 69.1659 144.511 68.9572C144.805 68.7486 145.142 68.6073 145.496 68.5435C149.057 66.3778 152.708 65.7698 156.349 66.7368C156.936 66.6497 157.535 66.7763 158.038 67.094C158.541 67.4117 158.915 67.8996 159.093 68.4701C160.567 73.2929 161.387 78.2945 161.53 83.3389C161.544 83.944 161.341 84.5339 160.958 85.0001C160.574 85.4663 160.037 85.7775 159.445 85.8766L148.67 87.6705C148.309 87.7314 147.938 87.7104 147.586 87.6092C147.234 87.5079 146.909 87.3288 146.634 87.0849Z" fill="#20B84B"/>
<path d="M147.591 74.0176L156.66 72.5077C156.734 72.4955 156.806 72.4686 156.87 72.4285C156.934 72.3884 156.99 72.3359 157.034 72.2741C157.078 72.2122 157.11 72.1422 157.127 72.0681C157.144 71.9939 157.146 71.9171 157.134 71.842C157.122 71.7669 157.095 71.6949 157.055 71.6303C157.015 71.5657 156.963 71.5096 156.901 71.4653C156.84 71.4211 156.77 71.3895 156.697 71.3723C156.623 71.3552 156.547 71.3528 156.472 71.3654L147.403 72.8752C147.253 72.9006 147.119 72.9848 147.031 73.1096C146.942 73.2343 146.907 73.3893 146.932 73.5405C146.956 73.6918 147.04 73.827 147.163 73.9164C147.287 74.0058 147.44 74.0422 147.591 74.0176Z" fill="white"/>
<path d="M148.341 78.5877L157.41 77.0778C157.561 77.0528 157.695 76.9686 157.784 76.8438C157.872 76.719 157.908 76.5638 157.883 76.4123C157.859 76.2608 157.775 76.1255 157.651 76.0361C157.527 75.9466 157.373 75.9105 157.223 75.9355L148.154 77.4453C148.079 77.4576 148.008 77.4845 147.944 77.5246C147.88 77.5647 147.824 77.6172 147.78 77.679C147.736 77.7409 147.704 77.8109 147.687 77.885C147.67 77.9591 147.667 78.036 147.68 78.1111C147.692 78.1862 147.719 78.2581 147.759 78.3228C147.799 78.3874 147.851 78.4435 147.912 78.4877C147.974 78.532 148.043 78.5636 148.117 78.5808C148.191 78.5979 148.267 78.6003 148.341 78.5877Z" fill="white"/>
<path d="M149.09 83.157L158.159 81.6472C158.309 81.6222 158.444 81.538 158.532 81.4132C158.621 81.2883 158.657 81.1331 158.632 80.9816C158.607 80.8301 158.524 80.6948 158.4 80.6054C158.276 80.516 158.122 80.4798 157.972 80.5048L148.903 82.0147C148.828 82.027 148.757 82.0541 148.693 82.0942C148.629 82.1344 148.573 82.1869 148.529 82.2487C148.485 82.3105 148.454 82.3804 148.437 82.4544C148.42 82.5285 148.417 82.6052 148.43 82.6802C148.442 82.7552 148.469 82.827 148.509 82.8916C148.548 82.9562 148.6 83.0122 148.662 83.0565C148.723 83.1007 148.792 83.1324 148.866 83.1497C148.939 83.1669 149.016 83.1694 149.09 83.157Z" fill="white"/>
</g>
<defs>
<clipPath id="clip0_239_2292">
<rect width="280" height="243" fill="white"/>
</clipPath>
</defs>
</svg>
