<svg width="12" height="15" viewBox="0 0 12 15" fill="none" xmlns="http://www.w3.org/2000/svg">
<path d="M10.2427 10.6066L6 15L1.75734 10.6066C0.918228 9.73764 0.346791 8.63055 0.115286 7.42531C-0.11622 6.22007 0.00260456 4.97081 0.456732 3.8355C0.91086 2.70019 1.67989 1.72982 2.66659 1.04711C3.65328 0.364396 4.81332 0 6 0C7.18668 0 8.34672 0.364396 9.33341 1.04711C10.3201 1.72982 11.0891 2.70019 11.5433 3.8355C11.9974 4.97081 12.1162 6.22007 11.8847 7.42531C11.6532 8.63055 11.0818 9.73764 10.2427 10.6066ZM6 7.59386C6.35362 7.59386 6.69276 7.44839 6.94281 7.18946C7.19286 6.93053 7.33333 6.57934 7.33333 6.21315C7.33333 5.84696 7.19286 5.49577 6.94281 5.23684C6.69276 4.9779 6.35362 4.83244 6 4.83244C5.64638 4.83244 5.30724 4.9779 5.05719 5.23684C4.80714 5.49577 4.66667 5.84696 4.66667 6.21315C4.66667 6.57934 4.80714 6.93053 5.05719 7.18946C5.30724 7.44839 5.64638 7.59386 6 7.59386Z" fill="#20B84B"/>
</svg>
