<svg width="311" height="56" viewBox="0 0 311 56" fill="none" xmlns="http://www.w3.org/2000/svg">
<path d="M28.0689 56C43.571 56 56.1379 43.464 56.1379 28C56.1379 12.536 43.571 0 28.0689 0C12.5669 0 0 12.536 0 28C0 43.464 12.5669 56 28.0689 56Z" fill="white"/>
<path d="M27.7614 16.8L29.4456 45.92C36.837 44.6133 46.8483 35.616 27.7614 10.08C9.12366 34.944 18.4987 44.3333 25.5159 45.92L27.7614 16.8Z" fill="#20B84B"/>
<path d="M36.4896 35.28C33.2295 41.1474 29.8917 42.9514 28.6303 43.12V40.0851C28.6303 38.4666 33.8698 36.2073 36.4896 35.28Z" fill="white"/>
<path d="M18.5255 35.28C21.7856 41.1474 25.1234 42.9514 26.3848 43.12V40.0851C26.3848 38.4666 21.1453 36.2073 18.5255 35.28Z" fill="white"/>
<path d="M33.6827 28C31.3541 32.191 28.9699 33.4795 28.0689 33.6V31.4322C28.0689 30.2761 31.8115 28.6624 33.6827 28Z" fill="white"/>
<path d="M31.4372 21.28C30.04 23.7946 28.6095 24.5678 28.0689 24.64V23.3394C28.0689 22.6457 30.3145 21.6774 31.4372 21.28Z" fill="white"/>
<path d="M24.1393 21.28C25.5365 23.7946 26.9669 24.5678 27.5076 24.64V23.3394C27.5076 22.6457 25.262 21.6774 24.1393 21.28Z" fill="white"/>
<path d="M21.3324 28C23.661 32.191 26.0452 33.4795 26.9462 33.6V31.4322C26.9462 30.2761 23.2036 28.6624 21.3324 28Z" fill="white"/>
<path d="M95.7128 26.8262H114.629V29.7293C114.629 35.1053 112.904 39.4598 109.455 42.793C106.006 46.1261 101.551 47.7926 96.09 47.7926C90.2697 47.7926 85.4373 45.911 81.593 42.1478C77.7846 38.3488 75.8804 33.7254 75.8804 28.2778C75.8804 22.7942 77.7666 18.153 81.5391 14.3539C85.3475 10.5549 90.0541 8.65536 95.6589 8.65536C99.1439 8.65536 102.342 9.44384 105.252 11.0208C108.162 12.5978 110.443 14.7302 112.096 17.4182L105.737 21.0739C104.839 19.5328 103.473 18.2784 101.641 17.3107C99.8086 16.343 97.7966 15.8592 95.605 15.8592C91.9762 15.8592 89.0122 17.0419 86.7128 19.4074C84.4134 21.7011 83.2636 24.6579 83.2636 28.2778C83.2636 31.8259 84.4313 34.7648 86.7667 37.0944C89.102 39.3882 92.2277 40.535 96.1439 40.535C98.9823 40.535 101.354 39.9078 103.258 38.6534C105.162 37.399 106.455 35.6429 107.138 33.385H95.7128V26.8262ZM126.548 20.16V24.7834C127.158 23.0989 128.2 21.8266 129.673 20.9664C131.146 20.0704 132.835 19.6224 134.739 19.6224V27.3638C132.62 27.0771 130.715 27.5072 129.027 28.6541C127.374 29.7651 126.548 31.6109 126.548 34.1914V47.04H119.596V20.16H126.548ZM158.285 23.3318V20.16H165.237V47.04H158.285V43.8682C156.201 46.4845 153.273 47.7926 149.5 47.7926C145.907 47.7926 142.818 46.4307 140.231 43.7069C137.68 40.9472 136.404 37.5782 136.404 33.6C136.404 29.6576 137.68 26.3066 140.231 23.5469C142.818 20.7872 145.907 19.4074 149.5 19.4074C153.273 19.4074 156.201 20.7155 158.285 23.3318ZM145.458 39.0835C146.859 40.4813 148.638 41.1802 150.794 41.1802C152.949 41.1802 154.728 40.4813 156.129 39.0835C157.566 37.6499 158.285 35.8221 158.285 33.6C158.285 31.3779 157.566 29.568 156.129 28.1702C154.728 26.7366 152.949 26.0198 150.794 26.0198C148.638 26.0198 146.859 26.7366 145.458 28.1702C144.057 29.568 143.356 31.3779 143.356 33.6C143.356 35.8221 144.057 37.6499 145.458 39.0835ZM177.743 27.7939C177.743 28.9408 179.378 29.9264 182.647 30.7507C183.797 31.0016 184.839 31.3062 185.773 31.6646C186.707 31.9872 187.641 32.471 188.576 33.1162C189.546 33.7254 190.3 34.5498 190.839 35.5891C191.378 36.6285 191.647 37.8291 191.647 39.191C191.647 41.9507 190.605 44.0832 188.522 45.5885C186.438 47.0579 183.869 47.7926 180.815 47.7926C175.282 47.7926 171.51 45.6602 169.498 41.3952L175.534 38.0083C176.36 40.3379 178.12 41.5027 180.815 41.5027C183.294 41.5027 184.534 40.7322 184.534 39.191C184.534 38.0442 182.899 37.0586 179.629 36.2342C178.408 35.9117 177.366 35.5891 176.504 35.2666C175.641 34.944 174.707 34.4781 173.701 33.8688C172.695 33.2237 171.923 32.4173 171.384 31.4496C170.881 30.4461 170.629 29.2813 170.629 27.9552C170.629 25.303 171.599 23.2243 173.54 21.719C175.516 20.1779 177.959 19.4074 180.869 19.4074C183.061 19.4074 185.055 19.9091 186.851 20.9126C188.647 21.8803 190.067 23.2781 191.108 25.1059L185.18 28.3315C184.318 26.5037 182.881 25.5898 180.869 25.5898C179.971 25.5898 179.216 25.8048 178.605 26.2349C178.031 26.6291 177.743 27.1488 177.743 27.7939ZM201.111 27.7939C201.111 28.9408 202.745 29.9264 206.015 30.7507C207.164 31.0016 208.206 31.3062 209.141 31.6646C210.075 31.9872 211.009 32.471 211.943 33.1162C212.913 33.7254 213.667 34.5498 214.206 35.5891C214.745 36.6285 215.015 37.8291 215.015 39.191C215.015 41.9507 213.973 44.0832 211.889 45.5885C209.805 47.0579 207.236 47.7926 204.182 47.7926C198.649 47.7926 194.877 45.6602 192.865 41.3952L198.901 38.0083C199.727 40.3379 201.488 41.5027 204.182 41.5027C206.661 41.5027 207.901 40.7322 207.901 39.191C207.901 38.0442 206.266 37.0586 202.997 36.2342C201.775 35.9117 200.733 35.5891 199.871 35.2666C199.009 34.944 198.075 34.4781 197.069 33.8688C196.063 33.2237 195.29 32.4173 194.751 31.4496C194.248 30.4461 193.997 29.2813 193.997 27.9552C193.997 25.303 194.967 23.2243 196.907 21.719C198.883 20.1779 201.326 19.4074 204.236 19.4074C206.428 19.4074 208.422 19.9091 210.218 20.9126C212.015 21.8803 213.434 23.2781 214.476 25.1059L208.548 28.3315C207.685 26.5037 206.248 25.5898 204.236 25.5898C203.338 25.5898 202.584 25.8048 201.973 26.2349C201.398 26.6291 201.111 27.1488 201.111 27.7939Z" fill="white"/>
<path d="M230.797 47.7926C224.869 47.7926 220.719 45.4093 218.348 40.6426L224.761 36.9869C225.947 39.3523 227.959 40.535 230.797 40.535C232.737 40.535 234.192 40.087 235.162 39.191C236.168 38.2592 236.671 36.9689 236.671 35.3203V9.40799H244.054V35.3203C244.054 39.2627 242.815 42.327 240.336 44.5133C237.893 46.6995 234.713 47.7926 230.797 47.7926ZM273.127 43.7069C270.397 46.4307 267.019 47.7926 262.995 47.7926C258.971 47.7926 255.594 46.4307 252.864 43.7069C250.133 40.983 248.768 37.6141 248.768 33.6C248.768 29.6218 250.133 26.2707 252.864 23.5469C255.63 20.7872 259.007 19.4073 262.995 19.4073C266.983 19.4073 270.361 20.7872 273.127 23.5469C275.894 26.3066 277.277 29.6576 277.277 33.6C277.277 37.5782 275.894 40.9472 273.127 43.7069ZM257.768 38.9222C259.169 40.32 260.912 41.0189 262.995 41.0189C265.079 41.0189 266.822 40.32 268.223 38.9222C269.624 37.5245 270.325 35.7504 270.325 33.6C270.325 31.4496 269.624 29.6755 268.223 28.2778C266.822 26.88 265.079 26.1811 262.995 26.1811C260.912 26.1811 259.169 26.88 257.768 28.2778C256.403 29.7113 255.72 31.4854 255.72 33.6C255.72 35.7146 256.403 37.4886 257.768 38.9222ZM297.85 19.4073C301.479 19.4073 304.569 20.7872 307.12 23.5469C309.707 26.3066 311 29.6576 311 33.6C311 37.6141 309.707 40.983 307.12 43.7069C304.605 46.4307 301.515 47.7926 297.85 47.7926C294.078 47.7926 291.168 46.4845 289.12 43.8682V47.04H282.168V9.40799H289.12V23.3318C291.168 20.7155 294.078 19.4073 297.85 19.4073ZM291.221 39.0835C292.623 40.4813 294.401 41.1802 296.557 41.1802C298.713 41.1802 300.491 40.4813 301.892 39.0835C303.329 37.6499 304.048 35.8221 304.048 33.6C304.048 31.3779 303.329 29.568 301.892 28.1702C300.491 26.7366 298.713 26.0198 296.557 26.0198C294.401 26.0198 292.623 26.7366 291.221 28.1702C289.82 29.568 289.12 31.3779 289.12 33.6C289.12 35.8221 289.82 37.6499 291.221 39.0835Z" fill="white"/>
</svg>
