<?xml version="1.0" encoding="utf-8"?>
<svg width="388.00003px" height="386px" viewBox="0 0 388.00003 386" version="1.1" xmlns:xlink="http://www.w3.org/1999/xlink" xmlns="http://www.w3.org/2000/svg">
  <path d="M0 193C0 86.409 86.8568 0 194 0C301.143 0 388 86.409 388 193C388 299.591 301.143 386 194 386C86.8568 386 0 299.591 0 193Z" id="Ellipse" fill="#025450" fill-rule="evenodd" stroke="none" />
  <path d="M367.723 279C335.936 342.429 270.083 386 194 386C117.918 386 52.0643 342.429 20.2769 279L367.723 279Z" id="Ellipse-2-Intersect" fill="#FFFFFF" fill-rule="evenodd" stroke="none" />
  <path d="M180 196.658C183.879 188.508 186.686 183.268 191 193.322C199.425 212.956 207.94 275.495 207.5 284.803C199.567 283.991 184.5 284.803 184.5 284.803C184.5 284.803 185.882 217.866 180 196.658Z" id="New-shape" fill="#FFFFFF" fill-rule="evenodd" stroke="none" />
  <path d="M190 176C199.687 183.697 252.722 196.574 280.5 137C284.306 131.976 285.517 86.2862 284 71C282.484 55.7138 284.544 55.1591 261.5 55.5C238.456 55.8409 209.5 61.5 209.5 61.5C209.5 61.5 169.318 69.7397 162 111.6C186.764 127.932 185.578 138.813 190 150.5C201.012 138.372 243.499 96.928 237 102.5C243.31 97.7325 187.743 160.036 190 176Z" id="New-shape-2" fill="#FFFFFF" fill-rule="evenodd" stroke="none" />
  <path d="M90.5 122C104.402 116.802 96.7016 118.951 115.5 113C131.853 107.03 193.016 119.45 178.501 173.5C176.159 173.55 155.482 160.202 113 150C126.942 156.169 168.078 176.633 173.5 182.8C171.355 194.305 120.28 229.357 86 173.501C76.7672 157.002 76.9547 158.451 71 143.5C65.0454 128.549 76.5982 127.198 90.5 122Z" id="New-shape-3" fill="#FFFFFF" fill-rule="evenodd" stroke="none" />
</svg>