<svg width="60" height="60" viewBox="0 0 60 60" fill="none" xmlns="http://www.w3.org/2000/svg">
<path d="M30 60C46.5685 60 60 46.5685 60 30C60 13.4315 46.5685 0 30 0C13.4315 0 0 13.4315 0 30C0 46.5685 13.4315 60 30 60Z" fill="#20B84B"/>
<path d="M29.6713 18L31.4713 49.2C39.3713 47.8 50.0713 38.16 29.6713 10.8C9.75132 37.44 19.7713 47.5 27.2713 49.2L29.6713 18Z" fill="#FAFAFA"/>
<path d="M39 37.8C35.5156 44.0864 31.9481 46.0193 30.6 46.2V42.9484C30.6 41.2142 36.2 38.7935 39 37.8Z" fill="#20B84B"/>
<path d="M19.8 37.8C23.2844 44.0864 26.8519 46.0193 28.2 46.2V42.9484C28.2 41.2142 22.6 38.7935 19.8 37.8Z" fill="#20B84B"/>
<path d="M36 30C33.5111 34.4903 30.9629 35.8709 30 36V33.6774C30 32.4387 34 30.7097 36 30Z" fill="#20B84B"/>
<path d="M33.6 22.8C32.1067 25.4942 30.5778 26.3226 30 26.4V25.0064C30 24.2632 32.4 23.2258 33.6 22.8Z" fill="#20B84B"/>
<path d="M25.8 22.8C27.2933 25.4942 28.8222 26.3226 29.4 26.4V25.0064C29.4 24.2632 27 23.2258 25.8 22.8Z" fill="#20B84B"/>
<path d="M22.8 30C25.2889 34.4903 27.8371 35.8709 28.8 36V33.6774C28.8 32.4387 24.8 30.7097 22.8 30Z" fill="#20B84B"/>
</svg>
