<svg width="18" height="18" viewBox="0 0 18 18" fill="none" xmlns="http://www.w3.org/2000/svg">
<path fill-rule="evenodd" clip-rule="evenodd" d="M5.19711 2.18943C2.30829 3.41715 0.96171 6.75427 2.18943 9.64308C3.41715 12.5319 6.75426 13.8785 9.64308 12.6508C12.5319 11.4231 13.8785 8.08594 12.6508 5.19712C11.423 2.3083 8.08593 0.961711 5.19711 2.18943ZM0.592889 10.3216C-1.00956 6.55103 0.748036 2.19534 4.5186 0.592889C8.28916 -1.00956 12.6448 0.748038 14.2473 4.5186C15.8498 8.28917 14.0922 12.6449 10.3216 14.2473C6.55103 15.8498 2.19534 14.0922 0.592889 10.3216Z" fill="white"/>
<path fill-rule="evenodd" clip-rule="evenodd" d="M11.438 11.4384C11.7767 11.0997 12.3259 11.0997 12.6646 11.4384L17.746 16.5198C18.0847 16.8585 18.0847 17.4077 17.746 17.7464C17.4072 18.0852 16.858 18.0852 16.5193 17.7464L11.438 12.6651C11.0992 12.3264 11.0992 11.7772 11.438 11.4384Z" fill="white"/>
</svg>
