<svg width="18" height="18" viewBox="0 0 18 18" fill="none" xmlns="http://www.w3.org/2000/svg">
<path d="M9 18C7.21997 18 5.47991 17.4722 3.99987 16.4832C2.51983 15.4943 1.36628 14.0887 0.685088 12.4442C0.00389956 10.7996 -0.17433 8.99002 0.172937 7.24419C0.520203 5.49836 1.37737 3.89471 2.63604 2.63604C3.89471 1.37737 5.49836 0.520203 7.24419 0.172937C8.99002 -0.17433 10.7996 0.00389956 12.4442 0.685088C14.0887 1.36628 15.4943 2.51983 16.4832 3.99987C17.4722 5.47991 18 7.21997 18 9C18 11.3869 17.0518 13.6761 15.364 15.364C13.6761 17.0518 11.3869 18 9 18V18ZM9 1.38462C7.49382 1.38462 6.02146 1.83125 4.76912 2.66804C3.51678 3.50483 2.5407 4.69419 1.96431 6.08572C1.38792 7.47725 1.23711 9.00845 1.53095 10.4857C1.82479 11.9629 2.55008 13.3199 3.61511 14.3849C4.68014 15.4499 6.03708 16.1752 7.51431 16.4691C8.99155 16.7629 10.5228 16.6121 11.9143 16.0357C13.3058 15.4593 14.4952 14.4832 15.332 13.2309C16.1688 11.9785 16.6154 10.5062 16.6154 9C16.6154 6.98028 15.8131 5.04327 14.3849 3.61511C12.9567 2.18695 11.0197 1.38462 9 1.38462Z" fill="#035350"/>
<path d="M9 9C8.40666 9 7.82664 8.82405 7.33329 8.49441C6.83994 8.16477 6.45543 7.69623 6.22836 7.14805C6.0013 6.59987 5.94189 5.99667 6.05765 5.41473C6.1734 4.83279 6.45912 4.29824 6.87868 3.87868C7.29824 3.45912 7.83279 3.1734 8.41473 3.05765C8.99667 2.94189 9.59987 3.0013 10.1481 3.22836C10.6962 3.45543 11.1648 3.83994 11.4944 4.33329C11.8241 4.82664 12 5.40666 12 6C12 6.79565 11.6839 7.55871 11.1213 8.12132C10.5587 8.68393 9.79565 9 9 9ZM9 4.2C8.64399 4.2 8.29598 4.30557 7.99997 4.50336C7.70397 4.70114 7.47326 4.98226 7.33702 5.31117C7.20078 5.64008 7.16513 6.002 7.23459 6.35116C7.30404 6.70033 7.47547 7.02106 7.72721 7.27279C7.97894 7.52453 8.29967 7.69596 8.64884 7.76541C8.998 7.83487 9.35992 7.79922 9.68883 7.66298C10.0177 7.52675 10.2989 7.29604 10.4966 7.00003C10.6944 6.70402 10.8 6.35601 10.8 6C10.8 5.52261 10.6104 5.06477 10.2728 4.72721C9.93523 4.38964 9.47739 4.2 9 4.2Z" fill="#035350"/>
<path d="M15.319 14C15.2242 14.0006 15.1303 13.982 15.0433 13.9452C14.9562 13.9085 14.878 13.8545 14.8135 13.7867C14.0884 13.0148 13.207 12.3982 12.2251 11.9759C11.2432 11.5537 10.1822 11.3348 9.10919 11.3333H8.48069C6.48056 11.3291 4.55726 12.0847 3.11795 13.44C2.98496 13.5471 2.81541 13.6011 2.64329 13.5913C2.47117 13.5815 2.30922 13.5085 2.18992 13.3871C2.07063 13.2656 2.00282 13.1046 2.00009 12.9363C1.99735 12.7681 2.05991 12.6051 2.1752 12.48C3.8666 10.8846 6.12836 9.99508 8.48069 10H9.10919C10.3704 10.0028 11.6175 10.2601 12.772 10.7557C13.9264 11.2513 14.9634 11.9746 15.8177 12.88C15.908 12.975 15.968 13.0936 15.9903 13.2212C16.0126 13.3489 15.9963 13.4802 15.9434 13.599C15.8905 13.7178 15.8033 13.819 15.6924 13.8902C15.5815 13.9614 15.4518 13.9996 15.319 14V14Z" fill="#035350"/>
</svg>
