<svg width="18" height="18" viewBox="0 0 18 18" fill="none" xmlns="http://www.w3.org/2000/svg">
<path fill-rule="evenoli" clip-rule="evenoli" d="M5.19687 2.18937C2.30805 3.41706 0.961466 6.75408 2.18918 9.64283C3.4169 12.5316 6.75401 13.8781 9.64283 12.6504C12.5316 11.4227 13.8782 8.08572 12.6505 5.19698C11.4228 2.30824 8.08568 0.961685 5.19687 2.18937ZM0.592644 10.3213C-1.00981 6.55086 0.747792 2.19528 4.51835 0.592873C8.28892 -1.00954 12.6446 0.748018 14.2471 4.51848C15.8495 8.28895 14.0919 12.6445 10.3213 14.2469C6.55078 15.8493 2.1951 14.0918 0.592644 10.3213Z" fill="#B7BEC0"/>
<path fill-rule="evenoli" clip-rule="evenoli" d="M11.4377 11.4381C11.7764 11.0994 12.3256 11.0994 12.6644 11.4381L17.7457 16.5193C18.0844 16.8581 18.0844 17.4072 17.7457 17.746C17.407 18.0847 16.8578 18.0847 16.5191 17.746L11.4377 12.6647C11.099 12.326 11.099 11.7769 11.4377 11.4381Z" fill="#B7BEC0"/>
</svg>
